<mxfile host="app.diagrams.net" agent="Mozilla/5.0 (Windows NT 10.0; Win64; x64) AppleWebKit/537.36 (KHTML, like Gecko) Chrome/128.0.0.0 Safari/537.36 Edg/128.0.0.0" version="24.7.12">
  <diagram name="第 1 页" id="JcTCLqSSIXfEtd4W7XzH">
    <mxGraphModel dx="6667" dy="3942" grid="1" gridSize="10" guides="1" tooltips="1" connect="1" arrows="1" fold="1" page="1" pageScale="1" pageWidth="827" pageHeight="1169" math="0" shadow="0">
      <root>
        <mxCell id="0" />
        <mxCell id="1" parent="0" />
        <mxCell id="K85-BwIVLnDeJNWSM9qs-109" value="" style="group" vertex="1" connectable="0" parent="1">
          <mxGeometry x="-1480" y="750" width="680" height="390" as="geometry" />
        </mxCell>
        <mxCell id="K85-BwIVLnDeJNWSM9qs-110" value="" style="rounded=1;whiteSpace=wrap;html=1;fillColor=#dae8fc;strokeColor=#6c8ebf;" vertex="1" parent="K85-BwIVLnDeJNWSM9qs-109">
          <mxGeometry width="600" height="260" as="geometry" />
        </mxCell>
        <mxCell id="K85-BwIVLnDeJNWSM9qs-111" value="&lt;b&gt;&lt;font style=&quot;font-size: 14px;&quot;&gt;id:&lt;/font&gt;&lt;/b&gt;{vol_id:999, range_idx: 0, &lt;b&gt;&lt;font color=&quot;#ff00ff&quot;&gt;group_idx: 0&lt;/font&gt;&lt;font color=&quot;#9ac7bf&quot;&gt; &lt;/font&gt;&lt;/b&gt;}&lt;div&gt;&lt;b style=&quot;font-size: 14px;&quot;&gt;&lt;font style=&quot;font-size: 14px;&quot;&gt;ds_id &lt;/font&gt;:&lt;/b&gt;&lt;font style=&quot;font-size: 14px;&quot;&gt;&amp;nbsp;3&lt;/font&gt;&lt;/div&gt;" style="ellipse;whiteSpace=wrap;html=1;" vertex="1" parent="K85-BwIVLnDeJNWSM9qs-109">
          <mxGeometry x="10" y="87.5" width="270" height="85" as="geometry" />
        </mxCell>
        <mxCell id="K85-BwIVLnDeJNWSM9qs-112" value="&lt;font style=&quot;font-size: 18px;&quot;&gt;&lt;b&gt;Group&lt;/b&gt;&lt;/font&gt;" style="text;html=1;align=center;verticalAlign=middle;whiteSpace=wrap;rounded=0;" vertex="1" parent="K85-BwIVLnDeJNWSM9qs-109">
          <mxGeometry x="20" y="10" width="60" height="30" as="geometry" />
        </mxCell>
        <mxCell id="K85-BwIVLnDeJNWSM9qs-113" value="" style="group" vertex="1" connectable="0" parent="K85-BwIVLnDeJNWSM9qs-109">
          <mxGeometry x="280" y="145" width="295" height="90" as="geometry" />
        </mxCell>
        <mxCell id="K85-BwIVLnDeJNWSM9qs-114" value="" style="rounded=1;whiteSpace=wrap;html=1;" vertex="1" parent="K85-BwIVLnDeJNWSM9qs-113">
          <mxGeometry width="290" height="90" as="geometry" />
        </mxCell>
        <mxCell id="K85-BwIVLnDeJNWSM9qs-115" value="" style="rounded=1;whiteSpace=wrap;html=1;fillColor=#ffe6cc;strokeColor=#d79b00;" vertex="1" parent="K85-BwIVLnDeJNWSM9qs-113">
          <mxGeometry x="15" y="50" width="80" height="40" as="geometry" />
        </mxCell>
        <mxCell id="K85-BwIVLnDeJNWSM9qs-116" value="&lt;span style=&quot;font-size: 14px;&quot;&gt;&lt;b&gt;NULL&lt;/b&gt;&lt;/span&gt;" style="text;html=1;align=center;verticalAlign=middle;whiteSpace=wrap;rounded=0;" vertex="1" parent="K85-BwIVLnDeJNWSM9qs-113">
          <mxGeometry width="295" height="40" as="geometry" />
        </mxCell>
        <mxCell id="K85-BwIVLnDeJNWSM9qs-117" value="" style="rounded=1;whiteSpace=wrap;html=1;fillColor=#ffe6cc;strokeColor=#d79b00;" vertex="1" parent="K85-BwIVLnDeJNWSM9qs-113">
          <mxGeometry x="195" y="50" width="80" height="40" as="geometry" />
        </mxCell>
        <mxCell id="K85-BwIVLnDeJNWSM9qs-118" value="" style="group" vertex="1" connectable="0" parent="K85-BwIVLnDeJNWSM9qs-109">
          <mxGeometry x="280" y="15" width="295" height="90" as="geometry" />
        </mxCell>
        <mxCell id="K85-BwIVLnDeJNWSM9qs-119" value="" style="rounded=1;whiteSpace=wrap;html=1;" vertex="1" parent="K85-BwIVLnDeJNWSM9qs-118">
          <mxGeometry width="290" height="90" as="geometry" />
        </mxCell>
        <mxCell id="K85-BwIVLnDeJNWSM9qs-120" value="" style="rounded=1;whiteSpace=wrap;html=1;fillColor=#ffe6cc;strokeColor=#d79b00;" vertex="1" parent="K85-BwIVLnDeJNWSM9qs-118">
          <mxGeometry x="15" y="50" width="80" height="40" as="geometry" />
        </mxCell>
        <mxCell id="K85-BwIVLnDeJNWSM9qs-121" value="&lt;span style=&quot;font-size: 14px;&quot;&gt;&lt;b&gt;NULL&lt;/b&gt;&lt;/span&gt;" style="text;html=1;align=center;verticalAlign=middle;whiteSpace=wrap;rounded=0;" vertex="1" parent="K85-BwIVLnDeJNWSM9qs-118">
          <mxGeometry width="295" height="40" as="geometry" />
        </mxCell>
        <mxCell id="K85-BwIVLnDeJNWSM9qs-122" value="" style="rounded=1;whiteSpace=wrap;html=1;fillColor=#ffe6cc;strokeColor=#d79b00;" vertex="1" parent="K85-BwIVLnDeJNWSM9qs-118">
          <mxGeometry x="195" y="50" width="80" height="40" as="geometry" />
        </mxCell>
        <mxCell id="K85-BwIVLnDeJNWSM9qs-123" value="" style="group" vertex="1" connectable="0" parent="K85-BwIVLnDeJNWSM9qs-109">
          <mxGeometry x="30" y="40" width="650" height="350" as="geometry" />
        </mxCell>
        <mxCell id="K85-BwIVLnDeJNWSM9qs-124" value="" style="rounded=1;whiteSpace=wrap;html=1;fillColor=#dae8fc;strokeColor=#6c8ebf;" vertex="1" parent="K85-BwIVLnDeJNWSM9qs-123">
          <mxGeometry width="600" height="260" as="geometry" />
        </mxCell>
        <mxCell id="K85-BwIVLnDeJNWSM9qs-125" value="&lt;b&gt;&lt;font style=&quot;font-size: 14px;&quot;&gt;id:&lt;/font&gt;&lt;/b&gt;{vol_id:999, range_idx: 0, &lt;b&gt;&lt;font color=&quot;#ff00ff&quot;&gt;group_idx: 0&lt;/font&gt;&lt;font color=&quot;#9ac7bf&quot;&gt; &lt;/font&gt;&lt;/b&gt;}&lt;div&gt;&lt;b style=&quot;font-size: 14px;&quot;&gt;&lt;font style=&quot;font-size: 14px;&quot;&gt;ds_id &lt;/font&gt;:&lt;/b&gt;&lt;font style=&quot;font-size: 14px;&quot;&gt;&amp;nbsp;3&lt;/font&gt;&lt;/div&gt;" style="ellipse;whiteSpace=wrap;html=1;" vertex="1" parent="K85-BwIVLnDeJNWSM9qs-123">
          <mxGeometry x="10" y="87.5" width="270" height="85" as="geometry" />
        </mxCell>
        <mxCell id="K85-BwIVLnDeJNWSM9qs-126" value="&lt;font style=&quot;font-size: 18px;&quot;&gt;&lt;b&gt;Group&lt;/b&gt;&lt;/font&gt;" style="text;html=1;align=center;verticalAlign=middle;whiteSpace=wrap;rounded=0;" vertex="1" parent="K85-BwIVLnDeJNWSM9qs-123">
          <mxGeometry x="20" y="10" width="60" height="30" as="geometry" />
        </mxCell>
        <mxCell id="K85-BwIVLnDeJNWSM9qs-127" value="" style="group" vertex="1" connectable="0" parent="K85-BwIVLnDeJNWSM9qs-123">
          <mxGeometry x="280" y="145" width="295" height="90" as="geometry" />
        </mxCell>
        <mxCell id="K85-BwIVLnDeJNWSM9qs-128" value="" style="rounded=1;whiteSpace=wrap;html=1;" vertex="1" parent="K85-BwIVLnDeJNWSM9qs-127">
          <mxGeometry width="290" height="90" as="geometry" />
        </mxCell>
        <mxCell id="K85-BwIVLnDeJNWSM9qs-129" value="" style="rounded=1;whiteSpace=wrap;html=1;fillColor=#ffe6cc;strokeColor=#d79b00;" vertex="1" parent="K85-BwIVLnDeJNWSM9qs-127">
          <mxGeometry x="15" y="50" width="80" height="40" as="geometry" />
        </mxCell>
        <mxCell id="K85-BwIVLnDeJNWSM9qs-130" value="&lt;span style=&quot;font-size: 14px;&quot;&gt;&lt;b&gt;NULL&lt;/b&gt;&lt;/span&gt;" style="text;html=1;align=center;verticalAlign=middle;whiteSpace=wrap;rounded=0;" vertex="1" parent="K85-BwIVLnDeJNWSM9qs-127">
          <mxGeometry width="295" height="40" as="geometry" />
        </mxCell>
        <mxCell id="K85-BwIVLnDeJNWSM9qs-131" value="" style="rounded=1;whiteSpace=wrap;html=1;fillColor=#ffe6cc;strokeColor=#d79b00;" vertex="1" parent="K85-BwIVLnDeJNWSM9qs-127">
          <mxGeometry x="195" y="50" width="80" height="40" as="geometry" />
        </mxCell>
        <mxCell id="K85-BwIVLnDeJNWSM9qs-132" value="" style="group" vertex="1" connectable="0" parent="K85-BwIVLnDeJNWSM9qs-123">
          <mxGeometry x="280" y="15" width="295" height="90" as="geometry" />
        </mxCell>
        <mxCell id="K85-BwIVLnDeJNWSM9qs-133" value="" style="rounded=1;whiteSpace=wrap;html=1;" vertex="1" parent="K85-BwIVLnDeJNWSM9qs-132">
          <mxGeometry width="290" height="90" as="geometry" />
        </mxCell>
        <mxCell id="K85-BwIVLnDeJNWSM9qs-134" value="" style="rounded=1;whiteSpace=wrap;html=1;fillColor=#ffe6cc;strokeColor=#d79b00;" vertex="1" parent="K85-BwIVLnDeJNWSM9qs-132">
          <mxGeometry x="15" y="50" width="80" height="40" as="geometry" />
        </mxCell>
        <mxCell id="K85-BwIVLnDeJNWSM9qs-135" value="&lt;span style=&quot;font-size: 14px;&quot;&gt;&lt;b&gt;NULL&lt;/b&gt;&lt;/span&gt;" style="text;html=1;align=center;verticalAlign=middle;whiteSpace=wrap;rounded=0;" vertex="1" parent="K85-BwIVLnDeJNWSM9qs-132">
          <mxGeometry width="295" height="40" as="geometry" />
        </mxCell>
        <mxCell id="K85-BwIVLnDeJNWSM9qs-136" value="" style="rounded=1;whiteSpace=wrap;html=1;fillColor=#ffe6cc;strokeColor=#d79b00;" vertex="1" parent="K85-BwIVLnDeJNWSM9qs-132">
          <mxGeometry x="195" y="50" width="80" height="40" as="geometry" />
        </mxCell>
        <mxCell id="K85-BwIVLnDeJNWSM9qs-137" value="" style="group" vertex="1" connectable="0" parent="K85-BwIVLnDeJNWSM9qs-123">
          <mxGeometry x="30" y="40" width="620" height="310" as="geometry" />
        </mxCell>
        <mxCell id="K85-BwIVLnDeJNWSM9qs-138" value="" style="rounded=1;whiteSpace=wrap;html=1;fillColor=#dae8fc;strokeColor=#6c8ebf;" vertex="1" parent="K85-BwIVLnDeJNWSM9qs-137">
          <mxGeometry width="600" height="260" as="geometry" />
        </mxCell>
        <mxCell id="K85-BwIVLnDeJNWSM9qs-139" value="&lt;b&gt;&lt;font style=&quot;font-size: 14px;&quot;&gt;id:&lt;/font&gt;&lt;/b&gt;{vol_id:999, range_idx: 0, &lt;b&gt;&lt;font color=&quot;#ff00ff&quot;&gt;group_idx: 0&lt;/font&gt;&lt;font color=&quot;#9ac7bf&quot;&gt; &lt;/font&gt;&lt;/b&gt;}&lt;div&gt;&lt;b style=&quot;font-size: 14px;&quot;&gt;&lt;font style=&quot;font-size: 14px;&quot;&gt;ds_id &lt;/font&gt;:&lt;/b&gt;&lt;font style=&quot;font-size: 14px;&quot;&gt;&amp;nbsp;3&lt;/font&gt;&lt;/div&gt;" style="ellipse;whiteSpace=wrap;html=1;" vertex="1" parent="K85-BwIVLnDeJNWSM9qs-137">
          <mxGeometry x="10" y="87.5" width="270" height="85" as="geometry" />
        </mxCell>
        <mxCell id="K85-BwIVLnDeJNWSM9qs-140" value="&lt;font style=&quot;font-size: 18px;&quot;&gt;&lt;b&gt;Group&lt;/b&gt;&lt;/font&gt;" style="text;html=1;align=center;verticalAlign=middle;whiteSpace=wrap;rounded=0;" vertex="1" parent="K85-BwIVLnDeJNWSM9qs-137">
          <mxGeometry x="20" y="10" width="60" height="30" as="geometry" />
        </mxCell>
        <mxCell id="K85-BwIVLnDeJNWSM9qs-141" value="" style="group" vertex="1" connectable="0" parent="K85-BwIVLnDeJNWSM9qs-137">
          <mxGeometry x="280" y="145" width="295" height="90" as="geometry" />
        </mxCell>
        <mxCell id="K85-BwIVLnDeJNWSM9qs-142" value="" style="rounded=1;whiteSpace=wrap;html=1;" vertex="1" parent="K85-BwIVLnDeJNWSM9qs-141">
          <mxGeometry width="290" height="90" as="geometry" />
        </mxCell>
        <mxCell id="K85-BwIVLnDeJNWSM9qs-143" value="" style="rounded=1;whiteSpace=wrap;html=1;fillColor=#ffe6cc;strokeColor=#d79b00;" vertex="1" parent="K85-BwIVLnDeJNWSM9qs-141">
          <mxGeometry x="15" y="50" width="80" height="40" as="geometry" />
        </mxCell>
        <mxCell id="K85-BwIVLnDeJNWSM9qs-144" value="&lt;span style=&quot;font-size: 14px;&quot;&gt;&lt;b&gt;NULL&lt;/b&gt;&lt;/span&gt;" style="text;html=1;align=center;verticalAlign=middle;whiteSpace=wrap;rounded=0;" vertex="1" parent="K85-BwIVLnDeJNWSM9qs-141">
          <mxGeometry width="295" height="40" as="geometry" />
        </mxCell>
        <mxCell id="K85-BwIVLnDeJNWSM9qs-145" value="" style="rounded=1;whiteSpace=wrap;html=1;fillColor=#ffe6cc;strokeColor=#d79b00;" vertex="1" parent="K85-BwIVLnDeJNWSM9qs-141">
          <mxGeometry x="195" y="50" width="80" height="40" as="geometry" />
        </mxCell>
        <mxCell id="K85-BwIVLnDeJNWSM9qs-146" value="" style="group" vertex="1" connectable="0" parent="K85-BwIVLnDeJNWSM9qs-137">
          <mxGeometry x="280" y="15" width="295" height="90" as="geometry" />
        </mxCell>
        <mxCell id="K85-BwIVLnDeJNWSM9qs-147" value="" style="rounded=1;whiteSpace=wrap;html=1;" vertex="1" parent="K85-BwIVLnDeJNWSM9qs-146">
          <mxGeometry width="290" height="90" as="geometry" />
        </mxCell>
        <mxCell id="K85-BwIVLnDeJNWSM9qs-148" value="" style="rounded=1;whiteSpace=wrap;html=1;fillColor=#ffe6cc;strokeColor=#d79b00;" vertex="1" parent="K85-BwIVLnDeJNWSM9qs-146">
          <mxGeometry x="15" y="50" width="80" height="40" as="geometry" />
        </mxCell>
        <mxCell id="K85-BwIVLnDeJNWSM9qs-149" value="&lt;span style=&quot;font-size: 14px;&quot;&gt;&lt;b&gt;NULL&lt;/b&gt;&lt;/span&gt;" style="text;html=1;align=center;verticalAlign=middle;whiteSpace=wrap;rounded=0;" vertex="1" parent="K85-BwIVLnDeJNWSM9qs-146">
          <mxGeometry width="295" height="40" as="geometry" />
        </mxCell>
        <mxCell id="K85-BwIVLnDeJNWSM9qs-150" value="" style="rounded=1;whiteSpace=wrap;html=1;fillColor=#ffe6cc;strokeColor=#d79b00;" vertex="1" parent="K85-BwIVLnDeJNWSM9qs-146">
          <mxGeometry x="195" y="50" width="80" height="40" as="geometry" />
        </mxCell>
        <mxCell id="K85-BwIVLnDeJNWSM9qs-151" value="" style="group" vertex="1" connectable="0" parent="K85-BwIVLnDeJNWSM9qs-137">
          <mxGeometry x="20" y="50" width="600" height="260" as="geometry" />
        </mxCell>
        <mxCell id="K85-BwIVLnDeJNWSM9qs-152" value="" style="rounded=1;whiteSpace=wrap;html=1;fillColor=#dae8fc;strokeColor=#6c8ebf;" vertex="1" parent="K85-BwIVLnDeJNWSM9qs-151">
          <mxGeometry width="600" height="260" as="geometry" />
        </mxCell>
        <mxCell id="K85-BwIVLnDeJNWSM9qs-153" value="&lt;b&gt;&lt;font style=&quot;font-size: 14px;&quot;&gt;id:&lt;/font&gt;&lt;/b&gt;{vol_id:999, range_idx: 0, &lt;b&gt;&lt;font color=&quot;#ff00ff&quot;&gt;group_idx: 0&lt;/font&gt;&lt;font color=&quot;#9ac7bf&quot;&gt; &lt;/font&gt;&lt;/b&gt;}&lt;div&gt;&lt;b style=&quot;font-size: 14px;&quot;&gt;&lt;font style=&quot;font-size: 14px;&quot;&gt;ds_id &lt;/font&gt;:&lt;/b&gt;&lt;font style=&quot;font-size: 14px;&quot;&gt;&amp;nbsp;3&lt;/font&gt;&lt;/div&gt;" style="ellipse;whiteSpace=wrap;html=1;" vertex="1" parent="K85-BwIVLnDeJNWSM9qs-151">
          <mxGeometry x="10" y="87.5" width="270" height="85" as="geometry" />
        </mxCell>
        <mxCell id="K85-BwIVLnDeJNWSM9qs-154" value="&lt;font style=&quot;font-size: 18px;&quot;&gt;&lt;b&gt;Group&lt;/b&gt;&lt;/font&gt;" style="text;html=1;align=center;verticalAlign=middle;whiteSpace=wrap;rounded=0;" vertex="1" parent="K85-BwIVLnDeJNWSM9qs-151">
          <mxGeometry x="20" y="10" width="60" height="30" as="geometry" />
        </mxCell>
        <mxCell id="K85-BwIVLnDeJNWSM9qs-155" value="" style="group" vertex="1" connectable="0" parent="K85-BwIVLnDeJNWSM9qs-151">
          <mxGeometry x="280" y="145" width="295" height="90" as="geometry" />
        </mxCell>
        <mxCell id="K85-BwIVLnDeJNWSM9qs-156" value="" style="rounded=1;whiteSpace=wrap;html=1;" vertex="1" parent="K85-BwIVLnDeJNWSM9qs-155">
          <mxGeometry width="290" height="90" as="geometry" />
        </mxCell>
        <mxCell id="K85-BwIVLnDeJNWSM9qs-157" value="" style="rounded=1;whiteSpace=wrap;html=1;fillColor=#ffe6cc;strokeColor=#d79b00;" vertex="1" parent="K85-BwIVLnDeJNWSM9qs-155">
          <mxGeometry x="15" y="50" width="80" height="40" as="geometry" />
        </mxCell>
        <mxCell id="K85-BwIVLnDeJNWSM9qs-158" value="&lt;span style=&quot;font-size: 14px;&quot;&gt;&lt;b&gt;NULL&lt;/b&gt;&lt;/span&gt;" style="text;html=1;align=center;verticalAlign=middle;whiteSpace=wrap;rounded=0;" vertex="1" parent="K85-BwIVLnDeJNWSM9qs-155">
          <mxGeometry width="295" height="40" as="geometry" />
        </mxCell>
        <mxCell id="K85-BwIVLnDeJNWSM9qs-159" value="" style="rounded=1;whiteSpace=wrap;html=1;fillColor=#ffe6cc;strokeColor=#d79b00;" vertex="1" parent="K85-BwIVLnDeJNWSM9qs-155">
          <mxGeometry x="195" y="50" width="80" height="40" as="geometry" />
        </mxCell>
        <mxCell id="K85-BwIVLnDeJNWSM9qs-160" value="" style="group" vertex="1" connectable="0" parent="K85-BwIVLnDeJNWSM9qs-151">
          <mxGeometry x="280" y="15" width="295" height="90" as="geometry" />
        </mxCell>
        <mxCell id="K85-BwIVLnDeJNWSM9qs-161" value="" style="rounded=1;whiteSpace=wrap;html=1;" vertex="1" parent="K85-BwIVLnDeJNWSM9qs-160">
          <mxGeometry width="290" height="90" as="geometry" />
        </mxCell>
        <mxCell id="K85-BwIVLnDeJNWSM9qs-162" value="" style="rounded=1;whiteSpace=wrap;html=1;fillColor=#ffe6cc;strokeColor=#d79b00;" vertex="1" parent="K85-BwIVLnDeJNWSM9qs-160">
          <mxGeometry x="15" y="50" width="80" height="40" as="geometry" />
        </mxCell>
        <mxCell id="K85-BwIVLnDeJNWSM9qs-163" value="&lt;span style=&quot;font-size: 14px;&quot;&gt;&lt;b&gt;NULL&lt;/b&gt;&lt;/span&gt;" style="text;html=1;align=center;verticalAlign=middle;whiteSpace=wrap;rounded=0;" vertex="1" parent="K85-BwIVLnDeJNWSM9qs-160">
          <mxGeometry width="295" height="40" as="geometry" />
        </mxCell>
        <mxCell id="K85-BwIVLnDeJNWSM9qs-164" value="" style="rounded=1;whiteSpace=wrap;html=1;fillColor=#ffe6cc;strokeColor=#d79b00;" vertex="1" parent="K85-BwIVLnDeJNWSM9qs-160">
          <mxGeometry x="195" y="50" width="80" height="40" as="geometry" />
        </mxCell>
        <mxCell id="K85-BwIVLnDeJNWSM9qs-169" value="" style="shape=umlLifeline;perimeter=lifelinePerimeter;whiteSpace=wrap;html=1;container=1;dropTarget=0;collapsible=0;recursiveResize=0;outlineConnect=0;portConstraint=eastwest;newEdgeStyle={&quot;curved&quot;:0,&quot;rounded&quot;:0};participant=umlBoundary;" vertex="1" parent="1">
          <mxGeometry x="-750" y="186" width="50" height="1384" as="geometry" />
        </mxCell>
        <mxCell id="K85-BwIVLnDeJNWSM9qs-170" value="GroupTaskExecutor" style="ellipse;whiteSpace=wrap;html=1;" vertex="1" parent="1">
          <mxGeometry x="-817.5" y="180" width="185" height="80" as="geometry" />
        </mxCell>
        <mxCell id="K85-BwIVLnDeJNWSM9qs-171" value="" style="shape=flexArrow;endArrow=classic;html=1;rounded=0;" edge="1" parent="1">
          <mxGeometry width="50" height="50" relative="1" as="geometry">
            <mxPoint x="-770" y="960" as="sourcePoint" />
            <mxPoint x="80" y="960" as="targetPoint" />
          </mxGeometry>
        </mxCell>
        <mxCell id="K85-BwIVLnDeJNWSM9qs-209" value="" style="edgeStyle=orthogonalEdgeStyle;rounded=0;orthogonalLoop=1;jettySize=auto;html=1;" edge="1" parent="1" source="K85-BwIVLnDeJNWSM9qs-172" target="K85-BwIVLnDeJNWSM9qs-180">
          <mxGeometry relative="1" as="geometry" />
        </mxCell>
        <mxCell id="K85-BwIVLnDeJNWSM9qs-172" value="&lt;font style=&quot;font-size: 18px;&quot;&gt;&lt;b&gt;Generate Group Task&lt;/b&gt;&lt;/font&gt;" style="ellipse;whiteSpace=wrap;html=1;" vertex="1" parent="1">
          <mxGeometry x="-335" y="480" width="160" height="70" as="geometry" />
        </mxCell>
        <mxCell id="K85-BwIVLnDeJNWSM9qs-204" value="" style="group" vertex="1" connectable="0" parent="1">
          <mxGeometry x="-510" y="700" width="510" height="240" as="geometry" />
        </mxCell>
        <mxCell id="K85-BwIVLnDeJNWSM9qs-180" value="" style="rounded=1;whiteSpace=wrap;html=1;fillColor=#d5e8d4;strokeColor=#82b366;" vertex="1" parent="K85-BwIVLnDeJNWSM9qs-204">
          <mxGeometry width="510" height="240" as="geometry" />
        </mxCell>
        <mxCell id="K85-BwIVLnDeJNWSM9qs-195" value="&lt;font style=&quot;font-size: 18px;&quot;&gt;&lt;b&gt;Task&lt;/b&gt;&lt;/font&gt;" style="text;html=1;align=center;verticalAlign=middle;whiteSpace=wrap;rounded=0;" vertex="1" parent="K85-BwIVLnDeJNWSM9qs-204">
          <mxGeometry x="27.28395061728395" y="10.370370370370438" width="62.96296296296297" height="31.111111111111107" as="geometry" />
        </mxCell>
        <mxCell id="K85-BwIVLnDeJNWSM9qs-196" value="" style="group" vertex="1" connectable="0" parent="K85-BwIVLnDeJNWSM9qs-204">
          <mxGeometry x="111.23456790123457" y="51.851851851851734" width="309.56790123456796" height="93.33333333333331" as="geometry" />
        </mxCell>
        <mxCell id="K85-BwIVLnDeJNWSM9qs-197" value="" style="rounded=1;whiteSpace=wrap;html=1;" vertex="1" parent="K85-BwIVLnDeJNWSM9qs-196">
          <mxGeometry width="304.320987654321" height="93.33333333333331" as="geometry" />
        </mxCell>
        <mxCell id="K85-BwIVLnDeJNWSM9qs-198" value="MASTER" style="rounded=1;whiteSpace=wrap;html=1;fillColor=#ffe6cc;strokeColor=#d79b00;" vertex="1" parent="K85-BwIVLnDeJNWSM9qs-196">
          <mxGeometry x="15.740740740740742" y="51.85185185185185" width="83.95061728395062" height="41.48148148148148" as="geometry" />
        </mxCell>
        <mxCell id="K85-BwIVLnDeJNWSM9qs-199" value="&lt;b&gt;&lt;font style=&quot;font-size: 14px;&quot;&gt;group_id:&lt;/font&gt;&lt;/b&gt;{vol_id:999, range_idx: 0,&amp;nbsp;&lt;b&gt;&lt;font color=&quot;#ff00ff&quot;&gt;group_idx: 0&lt;/font&gt;&lt;font color=&quot;#9ac7bf&quot;&gt;&amp;nbsp;&lt;/font&gt;&lt;/b&gt;}&lt;div&gt;&lt;font style=&quot;font-size: 18px;&quot;&gt;&lt;b&gt;id : 3&lt;/b&gt;&lt;/font&gt;&lt;/div&gt;" style="text;html=1;align=center;verticalAlign=middle;whiteSpace=wrap;rounded=0;" vertex="1" parent="K85-BwIVLnDeJNWSM9qs-196">
          <mxGeometry width="309.56790123456796" height="41.48148148148148" as="geometry" />
        </mxCell>
        <mxCell id="K85-BwIVLnDeJNWSM9qs-200" value="UNINIT" style="rounded=1;whiteSpace=wrap;html=1;fillColor=#ffe6cc;strokeColor=#d79b00;" vertex="1" parent="K85-BwIVLnDeJNWSM9qs-196">
          <mxGeometry x="204.62962962962965" y="51.85185185185185" width="83.95061728395062" height="41.48148148148148" as="geometry" />
        </mxCell>
        <mxCell id="K85-BwIVLnDeJNWSM9qs-201" value="&lt;font color=&quot;#ff0000&quot; style=&quot;font-size: 18px;&quot;&gt;&lt;b&gt;ds_id:3&lt;/b&gt;&lt;/font&gt;" style="rounded=1;whiteSpace=wrap;html=1;" vertex="1" parent="K85-BwIVLnDeJNWSM9qs-204">
          <mxGeometry x="27.280123456790122" y="159.99666666666667" width="125.92592592592594" height="62.222222222222214" as="geometry" />
        </mxCell>
        <mxCell id="K85-BwIVLnDeJNWSM9qs-202" value="&lt;font style=&quot;font-size: 18px;&quot;&gt;task_type:&lt;font color=&quot;#ff0000&quot;&gt;BIND&lt;/font&gt;&lt;/font&gt;" style="rounded=1;whiteSpace=wrap;html=1;" vertex="1" parent="K85-BwIVLnDeJNWSM9qs-204">
          <mxGeometry x="309.9996296296297" y="159.99666666666667" width="188.8888888888889" height="62.222222222222214" as="geometry" />
        </mxCell>
        <mxCell id="K85-BwIVLnDeJNWSM9qs-210" value="" style="group" vertex="1" connectable="0" parent="1">
          <mxGeometry x="80" y="830" width="600" height="260" as="geometry" />
        </mxCell>
        <mxCell id="K85-BwIVLnDeJNWSM9qs-211" value="" style="rounded=1;whiteSpace=wrap;html=1;fillColor=#dae8fc;strokeColor=#6c8ebf;" vertex="1" parent="K85-BwIVLnDeJNWSM9qs-210">
          <mxGeometry width="600" height="260" as="geometry" />
        </mxCell>
        <mxCell id="K85-BwIVLnDeJNWSM9qs-212" value="&lt;b&gt;&lt;font style=&quot;font-size: 14px;&quot;&gt;id:&lt;/font&gt;&lt;/b&gt;{vol_id:999, range_idx: 0, &lt;b&gt;&lt;font color=&quot;#ff00ff&quot;&gt;group_idx: 0&lt;/font&gt;&lt;font color=&quot;#9ac7bf&quot;&gt; &lt;/font&gt;&lt;/b&gt;}&lt;div&gt;&lt;b style=&quot;font-size: 14px;&quot;&gt;&lt;font style=&quot;font-size: 14px;&quot;&gt;ds_id &lt;/font&gt;:&lt;/b&gt;&lt;font style=&quot;font-size: 14px;&quot;&gt;&amp;nbsp;3&lt;/font&gt;&lt;/div&gt;" style="ellipse;whiteSpace=wrap;html=1;" vertex="1" parent="K85-BwIVLnDeJNWSM9qs-210">
          <mxGeometry x="10" y="87.5" width="270" height="85" as="geometry" />
        </mxCell>
        <mxCell id="K85-BwIVLnDeJNWSM9qs-213" value="&lt;font style=&quot;font-size: 18px;&quot;&gt;&lt;b&gt;Group&lt;/b&gt;&lt;/font&gt;" style="text;html=1;align=center;verticalAlign=middle;whiteSpace=wrap;rounded=0;" vertex="1" parent="K85-BwIVLnDeJNWSM9qs-210">
          <mxGeometry x="20" y="10" width="60" height="30" as="geometry" />
        </mxCell>
        <mxCell id="K85-BwIVLnDeJNWSM9qs-214" value="" style="group" vertex="1" connectable="0" parent="K85-BwIVLnDeJNWSM9qs-210">
          <mxGeometry x="280" y="20" width="295" height="90" as="geometry" />
        </mxCell>
        <mxCell id="K85-BwIVLnDeJNWSM9qs-215" value="" style="rounded=1;whiteSpace=wrap;html=1;" vertex="1" parent="K85-BwIVLnDeJNWSM9qs-214">
          <mxGeometry width="290" height="90" as="geometry" />
        </mxCell>
        <mxCell id="K85-BwIVLnDeJNWSM9qs-216" value="&lt;font color=&quot;#ff0000&quot;&gt;MASTER&lt;/font&gt;" style="rounded=1;whiteSpace=wrap;html=1;fillColor=#ffe6cc;strokeColor=#d79b00;" vertex="1" parent="K85-BwIVLnDeJNWSM9qs-214">
          <mxGeometry x="15" y="50" width="80" height="40" as="geometry" />
        </mxCell>
        <mxCell id="K85-BwIVLnDeJNWSM9qs-217" value="&lt;b&gt;&lt;font style=&quot;font-size: 14px;&quot;&gt;group_id:&lt;/font&gt;&lt;/b&gt;{vol_id:999, range_idx: 0,&amp;nbsp;&lt;b&gt;&lt;font color=&quot;#ff00ff&quot;&gt;group_idx: 0&lt;/font&gt;&lt;font color=&quot;#9ac7bf&quot;&gt;&amp;nbsp;&lt;/font&gt;&lt;/b&gt;}&lt;div&gt;id : 3&lt;/div&gt;" style="text;html=1;align=center;verticalAlign=middle;whiteSpace=wrap;rounded=0;" vertex="1" parent="K85-BwIVLnDeJNWSM9qs-214">
          <mxGeometry width="295" height="40" as="geometry" />
        </mxCell>
        <mxCell id="K85-BwIVLnDeJNWSM9qs-218" value="&lt;font color=&quot;#ff0000&quot;&gt;UNINIT&lt;/font&gt;" style="rounded=1;whiteSpace=wrap;html=1;fillColor=#ffe6cc;strokeColor=#d79b00;" vertex="1" parent="K85-BwIVLnDeJNWSM9qs-214">
          <mxGeometry x="195" y="50" width="80" height="40" as="geometry" />
        </mxCell>
        <mxCell id="K85-BwIVLnDeJNWSM9qs-219" value="" style="group" vertex="1" connectable="0" parent="K85-BwIVLnDeJNWSM9qs-210">
          <mxGeometry x="280" y="145" width="295" height="90" as="geometry" />
        </mxCell>
        <mxCell id="K85-BwIVLnDeJNWSM9qs-220" value="" style="rounded=1;whiteSpace=wrap;html=1;" vertex="1" parent="K85-BwIVLnDeJNWSM9qs-219">
          <mxGeometry width="290" height="90" as="geometry" />
        </mxCell>
        <mxCell id="K85-BwIVLnDeJNWSM9qs-221" value="" style="rounded=1;whiteSpace=wrap;html=1;fillColor=#ffe6cc;strokeColor=#d79b00;" vertex="1" parent="K85-BwIVLnDeJNWSM9qs-219">
          <mxGeometry x="15" y="50" width="80" height="40" as="geometry" />
        </mxCell>
        <mxCell id="K85-BwIVLnDeJNWSM9qs-222" value="&lt;span style=&quot;font-size: 14px;&quot;&gt;&lt;b&gt;NULL&lt;/b&gt;&lt;/span&gt;" style="text;html=1;align=center;verticalAlign=middle;whiteSpace=wrap;rounded=0;" vertex="1" parent="K85-BwIVLnDeJNWSM9qs-219">
          <mxGeometry width="295" height="40" as="geometry" />
        </mxCell>
        <mxCell id="K85-BwIVLnDeJNWSM9qs-223" value="" style="rounded=1;whiteSpace=wrap;html=1;fillColor=#ffe6cc;strokeColor=#d79b00;" vertex="1" parent="K85-BwIVLnDeJNWSM9qs-219">
          <mxGeometry x="195" y="50" width="80" height="40" as="geometry" />
        </mxCell>
        <mxCell id="K85-BwIVLnDeJNWSM9qs-225" value="&lt;font style=&quot;font-size: 18px;&quot;&gt;&lt;b&gt;DoBindGroupTask&lt;/b&gt;&lt;/font&gt;" style="ellipse;whiteSpace=wrap;html=1;" vertex="1" parent="1">
          <mxGeometry x="290" y="480" width="180" height="70" as="geometry" />
        </mxCell>
        <mxCell id="K85-BwIVLnDeJNWSM9qs-229" value="" style="edgeStyle=orthogonalEdgeStyle;rounded=0;orthogonalLoop=1;jettySize=auto;html=1;" edge="1" parent="1" source="K85-BwIVLnDeJNWSM9qs-226" target="K85-BwIVLnDeJNWSM9qs-211">
          <mxGeometry relative="1" as="geometry" />
        </mxCell>
        <mxCell id="K85-BwIVLnDeJNWSM9qs-226" value="&lt;font style=&quot;font-size: 18px;&quot;&gt;AddGroupReplica&lt;/font&gt;" style="rounded=1;whiteSpace=wrap;html=1;" vertex="1" parent="1">
          <mxGeometry x="275" y="670" width="210" height="60" as="geometry" />
        </mxCell>
        <mxCell id="K85-BwIVLnDeJNWSM9qs-230" value="" style="edgeStyle=orthogonalEdgeStyle;rounded=0;orthogonalLoop=1;jettySize=auto;html=1;exitX=0.5;exitY=1;exitDx=0;exitDy=0;" edge="1" parent="1" source="K85-BwIVLnDeJNWSM9qs-225">
          <mxGeometry relative="1" as="geometry">
            <mxPoint x="379.73" y="570" as="sourcePoint" />
            <mxPoint x="379.73" y="670" as="targetPoint" />
            <Array as="points" />
          </mxGeometry>
        </mxCell>
        <mxCell id="K85-BwIVLnDeJNWSM9qs-232" style="edgeStyle=orthogonalEdgeStyle;rounded=0;orthogonalLoop=1;jettySize=auto;html=1;exitX=0.5;exitY=1;exitDx=0;exitDy=0;" edge="1" parent="1">
          <mxGeometry relative="1" as="geometry">
            <mxPoint x="380" y="1310" as="sourcePoint" />
            <mxPoint x="380" y="1310" as="targetPoint" />
          </mxGeometry>
        </mxCell>
        <mxCell id="K85-BwIVLnDeJNWSM9qs-234" value="" style="group" vertex="1" connectable="0" parent="1">
          <mxGeometry x="1230" y="1060" width="600" height="260" as="geometry" />
        </mxCell>
        <mxCell id="K85-BwIVLnDeJNWSM9qs-235" value="" style="rounded=1;whiteSpace=wrap;html=1;fillColor=#dae8fc;strokeColor=#6c8ebf;" vertex="1" parent="K85-BwIVLnDeJNWSM9qs-234">
          <mxGeometry width="600" height="260" as="geometry" />
        </mxCell>
        <mxCell id="K85-BwIVLnDeJNWSM9qs-236" value="&lt;b&gt;&lt;font style=&quot;font-size: 14px;&quot;&gt;id:&lt;/font&gt;&lt;/b&gt;{vol_id:999, range_idx: 0, &lt;b&gt;&lt;font color=&quot;#ff00ff&quot;&gt;group_idx: 0&lt;/font&gt;&lt;font color=&quot;#9ac7bf&quot;&gt; &lt;/font&gt;&lt;/b&gt;}&lt;div&gt;&lt;b style=&quot;font-size: 14px;&quot;&gt;&lt;font style=&quot;font-size: 14px;&quot;&gt;ds_id &lt;/font&gt;:&lt;/b&gt;&lt;font style=&quot;font-size: 14px;&quot;&gt;&amp;nbsp;3&lt;/font&gt;&lt;/div&gt;" style="ellipse;whiteSpace=wrap;html=1;" vertex="1" parent="K85-BwIVLnDeJNWSM9qs-234">
          <mxGeometry x="10" y="87.5" width="270" height="85" as="geometry" />
        </mxCell>
        <mxCell id="K85-BwIVLnDeJNWSM9qs-237" value="&lt;font style=&quot;font-size: 18px;&quot;&gt;&lt;b&gt;Group&lt;/b&gt;&lt;/font&gt;" style="text;html=1;align=center;verticalAlign=middle;whiteSpace=wrap;rounded=0;" vertex="1" parent="K85-BwIVLnDeJNWSM9qs-234">
          <mxGeometry x="20" y="10" width="60" height="30" as="geometry" />
        </mxCell>
        <mxCell id="K85-BwIVLnDeJNWSM9qs-238" value="" style="group" vertex="1" connectable="0" parent="K85-BwIVLnDeJNWSM9qs-234">
          <mxGeometry x="280" y="20" width="295" height="90" as="geometry" />
        </mxCell>
        <mxCell id="K85-BwIVLnDeJNWSM9qs-239" value="" style="rounded=1;whiteSpace=wrap;html=1;" vertex="1" parent="K85-BwIVLnDeJNWSM9qs-238">
          <mxGeometry width="290" height="90" as="geometry" />
        </mxCell>
        <mxCell id="K85-BwIVLnDeJNWSM9qs-240" value="&lt;font color=&quot;#ff0000&quot;&gt;MASTER&lt;/font&gt;" style="rounded=1;whiteSpace=wrap;html=1;fillColor=#ffe6cc;strokeColor=#d79b00;" vertex="1" parent="K85-BwIVLnDeJNWSM9qs-238">
          <mxGeometry x="15" y="50" width="80" height="40" as="geometry" />
        </mxCell>
        <mxCell id="K85-BwIVLnDeJNWSM9qs-241" value="&lt;b&gt;&lt;font style=&quot;font-size: 14px;&quot;&gt;group_id:&lt;/font&gt;&lt;/b&gt;{vol_id:999, range_idx: 0,&amp;nbsp;&lt;b&gt;&lt;font color=&quot;#ff00ff&quot;&gt;group_idx: 0&lt;/font&gt;&lt;font color=&quot;#9ac7bf&quot;&gt;&amp;nbsp;&lt;/font&gt;&lt;/b&gt;}&lt;div&gt;id : 3&lt;/div&gt;" style="text;html=1;align=center;verticalAlign=middle;whiteSpace=wrap;rounded=0;" vertex="1" parent="K85-BwIVLnDeJNWSM9qs-238">
          <mxGeometry width="295" height="40" as="geometry" />
        </mxCell>
        <mxCell id="K85-BwIVLnDeJNWSM9qs-242" value="&lt;font color=&quot;#ff0000&quot;&gt;DOWN&lt;/font&gt;" style="rounded=1;whiteSpace=wrap;html=1;fillColor=#ffe6cc;strokeColor=#d79b00;" vertex="1" parent="K85-BwIVLnDeJNWSM9qs-238">
          <mxGeometry x="195" y="50" width="80" height="40" as="geometry" />
        </mxCell>
        <mxCell id="K85-BwIVLnDeJNWSM9qs-243" value="" style="group" vertex="1" connectable="0" parent="K85-BwIVLnDeJNWSM9qs-234">
          <mxGeometry x="280" y="145" width="295" height="90" as="geometry" />
        </mxCell>
        <mxCell id="K85-BwIVLnDeJNWSM9qs-244" value="" style="rounded=1;whiteSpace=wrap;html=1;" vertex="1" parent="K85-BwIVLnDeJNWSM9qs-243">
          <mxGeometry width="290" height="90" as="geometry" />
        </mxCell>
        <mxCell id="K85-BwIVLnDeJNWSM9qs-245" value="" style="rounded=1;whiteSpace=wrap;html=1;fillColor=#ffe6cc;strokeColor=#d79b00;" vertex="1" parent="K85-BwIVLnDeJNWSM9qs-243">
          <mxGeometry x="15" y="50" width="80" height="40" as="geometry" />
        </mxCell>
        <mxCell id="K85-BwIVLnDeJNWSM9qs-246" value="&lt;span style=&quot;font-size: 14px;&quot;&gt;&lt;b&gt;NULL&lt;/b&gt;&lt;/span&gt;" style="text;html=1;align=center;verticalAlign=middle;whiteSpace=wrap;rounded=0;" vertex="1" parent="K85-BwIVLnDeJNWSM9qs-243">
          <mxGeometry width="295" height="40" as="geometry" />
        </mxCell>
        <mxCell id="K85-BwIVLnDeJNWSM9qs-247" value="" style="rounded=1;whiteSpace=wrap;html=1;fillColor=#ffe6cc;strokeColor=#d79b00;" vertex="1" parent="K85-BwIVLnDeJNWSM9qs-243">
          <mxGeometry x="195" y="50" width="80" height="40" as="geometry" />
        </mxCell>
        <mxCell id="K85-BwIVLnDeJNWSM9qs-248" value="" style="group" vertex="1" connectable="0" parent="1">
          <mxGeometry x="1230" y="510" width="600" height="260" as="geometry" />
        </mxCell>
        <mxCell id="K85-BwIVLnDeJNWSM9qs-249" value="" style="rounded=1;whiteSpace=wrap;html=1;fillColor=#dae8fc;strokeColor=#6c8ebf;" vertex="1" parent="K85-BwIVLnDeJNWSM9qs-248">
          <mxGeometry width="600" height="260" as="geometry" />
        </mxCell>
        <mxCell id="K85-BwIVLnDeJNWSM9qs-250" value="&lt;b&gt;&lt;font style=&quot;font-size: 14px;&quot;&gt;id:&lt;/font&gt;&lt;/b&gt;{vol_id:999, range_idx: 0, &lt;b&gt;&lt;font color=&quot;#ff00ff&quot;&gt;group_idx: 0&lt;/font&gt;&lt;font color=&quot;#9ac7bf&quot;&gt; &lt;/font&gt;&lt;/b&gt;}&lt;div&gt;&lt;b style=&quot;font-size: 14px;&quot;&gt;&lt;font style=&quot;font-size: 14px;&quot;&gt;ds_id &lt;/font&gt;:&lt;/b&gt;&lt;font style=&quot;font-size: 14px;&quot;&gt;&amp;nbsp;3&lt;/font&gt;&lt;/div&gt;" style="ellipse;whiteSpace=wrap;html=1;" vertex="1" parent="K85-BwIVLnDeJNWSM9qs-248">
          <mxGeometry x="10" y="87.5" width="270" height="85" as="geometry" />
        </mxCell>
        <mxCell id="K85-BwIVLnDeJNWSM9qs-251" value="&lt;font style=&quot;font-size: 18px;&quot;&gt;&lt;b&gt;Group&lt;/b&gt;&lt;/font&gt;" style="text;html=1;align=center;verticalAlign=middle;whiteSpace=wrap;rounded=0;" vertex="1" parent="K85-BwIVLnDeJNWSM9qs-248">
          <mxGeometry x="20" y="10" width="60" height="30" as="geometry" />
        </mxCell>
        <mxCell id="K85-BwIVLnDeJNWSM9qs-252" value="" style="group" vertex="1" connectable="0" parent="K85-BwIVLnDeJNWSM9qs-248">
          <mxGeometry x="280" y="20" width="295" height="90" as="geometry" />
        </mxCell>
        <mxCell id="K85-BwIVLnDeJNWSM9qs-253" value="" style="rounded=1;whiteSpace=wrap;html=1;" vertex="1" parent="K85-BwIVLnDeJNWSM9qs-252">
          <mxGeometry width="290" height="90" as="geometry" />
        </mxCell>
        <mxCell id="K85-BwIVLnDeJNWSM9qs-254" value="&lt;font color=&quot;#ff0000&quot;&gt;MASTER&lt;/font&gt;" style="rounded=1;whiteSpace=wrap;html=1;fillColor=#ffe6cc;strokeColor=#d79b00;" vertex="1" parent="K85-BwIVLnDeJNWSM9qs-252">
          <mxGeometry x="15" y="50" width="80" height="40" as="geometry" />
        </mxCell>
        <mxCell id="K85-BwIVLnDeJNWSM9qs-255" value="&lt;b&gt;&lt;font style=&quot;font-size: 14px;&quot;&gt;group_id:&lt;/font&gt;&lt;/b&gt;{vol_id:999, range_idx: 0,&amp;nbsp;&lt;b&gt;&lt;font color=&quot;#ff00ff&quot;&gt;group_idx: 0&lt;/font&gt;&lt;font color=&quot;#9ac7bf&quot;&gt;&amp;nbsp;&lt;/font&gt;&lt;/b&gt;}&lt;div&gt;&lt;font style=&quot;font-size: 18px;&quot;&gt;id : 3&lt;/font&gt;&lt;/div&gt;" style="text;html=1;align=center;verticalAlign=middle;whiteSpace=wrap;rounded=0;" vertex="1" parent="K85-BwIVLnDeJNWSM9qs-252">
          <mxGeometry width="295" height="40" as="geometry" />
        </mxCell>
        <mxCell id="K85-BwIVLnDeJNWSM9qs-256" value="&lt;font color=&quot;#ff0000&quot;&gt;BINDING&lt;/font&gt;" style="rounded=1;whiteSpace=wrap;html=1;fillColor=#ffe6cc;strokeColor=#d79b00;" vertex="1" parent="K85-BwIVLnDeJNWSM9qs-252">
          <mxGeometry x="195" y="50" width="80" height="40" as="geometry" />
        </mxCell>
        <mxCell id="K85-BwIVLnDeJNWSM9qs-257" value="" style="group" vertex="1" connectable="0" parent="K85-BwIVLnDeJNWSM9qs-248">
          <mxGeometry x="280" y="145" width="295" height="90" as="geometry" />
        </mxCell>
        <mxCell id="K85-BwIVLnDeJNWSM9qs-258" value="" style="rounded=1;whiteSpace=wrap;html=1;" vertex="1" parent="K85-BwIVLnDeJNWSM9qs-257">
          <mxGeometry width="290" height="90" as="geometry" />
        </mxCell>
        <mxCell id="K85-BwIVLnDeJNWSM9qs-259" value="" style="rounded=1;whiteSpace=wrap;html=1;fillColor=#ffe6cc;strokeColor=#d79b00;" vertex="1" parent="K85-BwIVLnDeJNWSM9qs-257">
          <mxGeometry x="15" y="50" width="80" height="40" as="geometry" />
        </mxCell>
        <mxCell id="K85-BwIVLnDeJNWSM9qs-260" value="&lt;span style=&quot;font-size: 14px;&quot;&gt;&lt;b&gt;NULL&lt;/b&gt;&lt;/span&gt;" style="text;html=1;align=center;verticalAlign=middle;whiteSpace=wrap;rounded=0;" vertex="1" parent="K85-BwIVLnDeJNWSM9qs-257">
          <mxGeometry width="295" height="40" as="geometry" />
        </mxCell>
        <mxCell id="K85-BwIVLnDeJNWSM9qs-261" value="" style="rounded=1;whiteSpace=wrap;html=1;fillColor=#ffe6cc;strokeColor=#d79b00;" vertex="1" parent="K85-BwIVLnDeJNWSM9qs-257">
          <mxGeometry x="195" y="50" width="80" height="40" as="geometry" />
        </mxCell>
        <mxCell id="K85-BwIVLnDeJNWSM9qs-265" value="&lt;font style=&quot;font-size: 18px;&quot;&gt;BindGroup&lt;/font&gt;" style="rhombus;whiteSpace=wrap;html=1;fillColor=#e1d5e7;strokeColor=#9673a6;" vertex="1" parent="1">
          <mxGeometry x="827" y="910" width="220" height="100" as="geometry" />
        </mxCell>
        <mxCell id="K85-BwIVLnDeJNWSM9qs-267" value="" style="shape=flexArrow;endArrow=classic;html=1;rounded=0;exitX=1;exitY=0.5;exitDx=0;exitDy=0;" edge="1" parent="1" source="K85-BwIVLnDeJNWSM9qs-211" target="K85-BwIVLnDeJNWSM9qs-265">
          <mxGeometry width="50" height="50" relative="1" as="geometry">
            <mxPoint x="680" y="970" as="sourcePoint" />
            <mxPoint x="730" y="920" as="targetPoint" />
          </mxGeometry>
        </mxCell>
        <mxCell id="K85-BwIVLnDeJNWSM9qs-268" value="" style="shape=flexArrow;endArrow=classic;html=1;rounded=0;entryX=0;entryY=0.5;entryDx=0;entryDy=0;exitX=0.5;exitY=0;exitDx=0;exitDy=0;" edge="1" parent="1" source="K85-BwIVLnDeJNWSM9qs-265" target="K85-BwIVLnDeJNWSM9qs-249">
          <mxGeometry width="50" height="50" relative="1" as="geometry">
            <mxPoint x="930" y="910" as="sourcePoint" />
            <mxPoint x="980" y="860" as="targetPoint" />
          </mxGeometry>
        </mxCell>
        <mxCell id="K85-BwIVLnDeJNWSM9qs-269" value="" style="shape=flexArrow;endArrow=classic;html=1;rounded=0;entryX=0;entryY=0.5;entryDx=0;entryDy=0;exitX=0.5;exitY=1;exitDx=0;exitDy=0;" edge="1" parent="1" source="K85-BwIVLnDeJNWSM9qs-265">
          <mxGeometry width="50" height="50" relative="1" as="geometry">
            <mxPoint x="937" y="1470" as="sourcePoint" />
            <mxPoint x="1230" y="1200" as="targetPoint" />
          </mxGeometry>
        </mxCell>
        <mxCell id="K85-BwIVLnDeJNWSM9qs-270" value="成功" style="text;html=1;align=center;verticalAlign=middle;whiteSpace=wrap;rounded=0;" vertex="1" parent="1">
          <mxGeometry x="1020" y="750" width="60" height="30" as="geometry" />
        </mxCell>
        <mxCell id="K85-BwIVLnDeJNWSM9qs-271" value="失败" style="text;html=1;align=center;verticalAlign=middle;whiteSpace=wrap;rounded=0;" vertex="1" parent="1">
          <mxGeometry x="1020" y="1100" width="60" height="30" as="geometry" />
        </mxCell>
        <mxCell id="K85-BwIVLnDeJNWSM9qs-26" value="" style="edgeStyle=orthogonalEdgeStyle;rounded=0;orthogonalLoop=1;jettySize=auto;html=1;" edge="1" parent="1" source="K85-BwIVLnDeJNWSM9qs-23" target="K85-BwIVLnDeJNWSM9qs-25">
          <mxGeometry relative="1" as="geometry" />
        </mxCell>
        <mxCell id="K85-BwIVLnDeJNWSM9qs-23" value="CreateDataServer&lt;div&gt;CreateVolume&lt;/div&gt;" style="rounded=1;whiteSpace=wrap;html=1;" vertex="1" parent="1">
          <mxGeometry x="-1275" y="460" width="120" height="60" as="geometry" />
        </mxCell>
        <mxCell id="K85-BwIVLnDeJNWSM9qs-25" value="rangeManger 创建group" style="ellipse;whiteSpace=wrap;html=1;" vertex="1" parent="1">
          <mxGeometry x="-1300" y="565" width="170" height="75" as="geometry" />
        </mxCell>
        <mxCell id="K85-BwIVLnDeJNWSM9qs-165" value="" style="shape=flexArrow;endArrow=classic;html=1;rounded=0;" edge="1" parent="1">
          <mxGeometry width="50" height="50" relative="1" as="geometry">
            <mxPoint x="-1220" y="640" as="sourcePoint" />
            <mxPoint x="-1220" y="740" as="targetPoint" />
          </mxGeometry>
        </mxCell>
        <mxCell id="K85-BwIVLnDeJNWSM9qs-273" value="" style="group" vertex="1" connectable="0" parent="1">
          <mxGeometry x="-760" y="860" width="30" height="90" as="geometry" />
        </mxCell>
        <mxCell id="K85-BwIVLnDeJNWSM9qs-21" value="" style="ellipse;html=1;shape=startState;fillColor=#000000;strokeColor=#ff0000;" vertex="1" parent="K85-BwIVLnDeJNWSM9qs-273">
          <mxGeometry width="30" height="30" as="geometry" />
        </mxCell>
        <mxCell id="K85-BwIVLnDeJNWSM9qs-22" value="" style="edgeStyle=orthogonalEdgeStyle;html=1;verticalAlign=bottom;endArrow=open;endSize=8;strokeColor=#ff0000;rounded=0;" edge="1" source="K85-BwIVLnDeJNWSM9qs-21" parent="K85-BwIVLnDeJNWSM9qs-273">
          <mxGeometry relative="1" as="geometry">
            <mxPoint x="15" y="90" as="targetPoint" />
          </mxGeometry>
        </mxCell>
        <mxCell id="K85-BwIVLnDeJNWSM9qs-274" value="" style="shape=flexArrow;endArrow=classic;html=1;rounded=0;" edge="1" parent="1">
          <mxGeometry width="50" height="50" relative="1" as="geometry">
            <mxPoint x="1830" y="640" as="sourcePoint" />
            <mxPoint x="2200" y="640" as="targetPoint" />
          </mxGeometry>
        </mxCell>
        <mxCell id="K85-BwIVLnDeJNWSM9qs-275" value="" style="group" vertex="1" connectable="0" parent="1">
          <mxGeometry x="2200" y="510" width="600" height="260" as="geometry" />
        </mxCell>
        <mxCell id="K85-BwIVLnDeJNWSM9qs-276" value="" style="rounded=1;whiteSpace=wrap;html=1;fillColor=#dae8fc;strokeColor=#6c8ebf;" vertex="1" parent="K85-BwIVLnDeJNWSM9qs-275">
          <mxGeometry width="600" height="260" as="geometry" />
        </mxCell>
        <mxCell id="K85-BwIVLnDeJNWSM9qs-277" value="&lt;b&gt;&lt;font style=&quot;font-size: 14px;&quot;&gt;id:&lt;/font&gt;&lt;/b&gt;{vol_id:999, range_idx: 0, &lt;b&gt;&lt;font color=&quot;#ff00ff&quot;&gt;group_idx: 0&lt;/font&gt;&lt;font color=&quot;#9ac7bf&quot;&gt; &lt;/font&gt;&lt;/b&gt;}&lt;div&gt;&lt;b style=&quot;font-size: 14px;&quot;&gt;&lt;font style=&quot;font-size: 14px;&quot;&gt;ds_id &lt;/font&gt;:&lt;/b&gt;&lt;font style=&quot;font-size: 14px;&quot;&gt;&amp;nbsp;3&lt;/font&gt;&lt;/div&gt;" style="ellipse;whiteSpace=wrap;html=1;" vertex="1" parent="K85-BwIVLnDeJNWSM9qs-275">
          <mxGeometry x="10" y="87.5" width="270" height="85" as="geometry" />
        </mxCell>
        <mxCell id="K85-BwIVLnDeJNWSM9qs-278" value="&lt;font style=&quot;font-size: 18px;&quot;&gt;&lt;b&gt;Group&lt;/b&gt;&lt;/font&gt;" style="text;html=1;align=center;verticalAlign=middle;whiteSpace=wrap;rounded=0;" vertex="1" parent="K85-BwIVLnDeJNWSM9qs-275">
          <mxGeometry x="20" y="10" width="60" height="30" as="geometry" />
        </mxCell>
        <mxCell id="K85-BwIVLnDeJNWSM9qs-279" value="" style="group" vertex="1" connectable="0" parent="K85-BwIVLnDeJNWSM9qs-275">
          <mxGeometry x="280" y="20" width="295" height="90" as="geometry" />
        </mxCell>
        <mxCell id="K85-BwIVLnDeJNWSM9qs-280" value="" style="rounded=1;whiteSpace=wrap;html=1;" vertex="1" parent="K85-BwIVLnDeJNWSM9qs-279">
          <mxGeometry width="290" height="90" as="geometry" />
        </mxCell>
        <mxCell id="K85-BwIVLnDeJNWSM9qs-281" value="MASTER" style="rounded=1;whiteSpace=wrap;html=1;fillColor=#ffe6cc;strokeColor=#d79b00;" vertex="1" parent="K85-BwIVLnDeJNWSM9qs-279">
          <mxGeometry x="15" y="50" width="80" height="40" as="geometry" />
        </mxCell>
        <mxCell id="K85-BwIVLnDeJNWSM9qs-282" value="&lt;b&gt;&lt;font style=&quot;font-size: 14px;&quot;&gt;group_id:&lt;/font&gt;&lt;/b&gt;{vol_id:999, range_idx: 0,&amp;nbsp;&lt;b&gt;&lt;font color=&quot;#ff00ff&quot;&gt;group_idx: 0&lt;/font&gt;&lt;font color=&quot;#9ac7bf&quot;&gt;&amp;nbsp;&lt;/font&gt;&lt;/b&gt;}&lt;div&gt;&lt;b&gt;&lt;font style=&quot;font-size: 18px;&quot;&gt;id : 3&lt;/font&gt;&lt;/b&gt;&lt;/div&gt;" style="text;html=1;align=center;verticalAlign=middle;whiteSpace=wrap;rounded=0;" vertex="1" parent="K85-BwIVLnDeJNWSM9qs-279">
          <mxGeometry width="295" height="40" as="geometry" />
        </mxCell>
        <mxCell id="K85-BwIVLnDeJNWSM9qs-283" value="&lt;font color=&quot;#ff0000&quot;&gt;RUNNING&lt;/font&gt;" style="rounded=1;whiteSpace=wrap;html=1;fillColor=#ffe6cc;strokeColor=#d79b00;" vertex="1" parent="K85-BwIVLnDeJNWSM9qs-279">
          <mxGeometry x="195" y="50" width="80" height="40" as="geometry" />
        </mxCell>
        <mxCell id="K85-BwIVLnDeJNWSM9qs-284" value="" style="group" vertex="1" connectable="0" parent="K85-BwIVLnDeJNWSM9qs-275">
          <mxGeometry x="280" y="145" width="295" height="90" as="geometry" />
        </mxCell>
        <mxCell id="K85-BwIVLnDeJNWSM9qs-285" value="" style="rounded=1;whiteSpace=wrap;html=1;" vertex="1" parent="K85-BwIVLnDeJNWSM9qs-284">
          <mxGeometry width="290" height="90" as="geometry" />
        </mxCell>
        <mxCell id="K85-BwIVLnDeJNWSM9qs-286" value="" style="rounded=1;whiteSpace=wrap;html=1;fillColor=#ffe6cc;strokeColor=#d79b00;" vertex="1" parent="K85-BwIVLnDeJNWSM9qs-284">
          <mxGeometry x="15" y="50" width="80" height="40" as="geometry" />
        </mxCell>
        <mxCell id="K85-BwIVLnDeJNWSM9qs-287" value="&lt;span style=&quot;font-size: 14px;&quot;&gt;&lt;b&gt;NULL&lt;/b&gt;&lt;/span&gt;" style="text;html=1;align=center;verticalAlign=middle;whiteSpace=wrap;rounded=0;" vertex="1" parent="K85-BwIVLnDeJNWSM9qs-284">
          <mxGeometry width="295" height="40" as="geometry" />
        </mxCell>
        <mxCell id="K85-BwIVLnDeJNWSM9qs-288" value="" style="rounded=1;whiteSpace=wrap;html=1;fillColor=#ffe6cc;strokeColor=#d79b00;" vertex="1" parent="K85-BwIVLnDeJNWSM9qs-284">
          <mxGeometry x="195" y="50" width="80" height="40" as="geometry" />
        </mxCell>
        <mxCell id="K85-BwIVLnDeJNWSM9qs-289" value="Dataserver上报状态：RUNNING" style="ellipse;whiteSpace=wrap;html=1;fillColor=#d80073;fontColor=#ffffff;strokeColor=#A50040;" vertex="1" parent="1">
          <mxGeometry x="1880" y="565" width="250" height="55" as="geometry" />
        </mxCell>
        <mxCell id="K85-BwIVLnDeJNWSM9qs-290" value="代表疑问" style="ellipse;whiteSpace=wrap;html=1;fillColor=#d80073;fontColor=#ffffff;strokeColor=#A50040;" vertex="1" parent="1">
          <mxGeometry x="70" y="-170" width="250" height="55" as="geometry" />
        </mxCell>
        <mxCell id="K85-BwIVLnDeJNWSM9qs-294" value="" style="edgeStyle=orthogonalEdgeStyle;rounded=0;orthogonalLoop=1;jettySize=auto;html=1;" edge="1" parent="1" source="K85-BwIVLnDeJNWSM9qs-291" target="K85-BwIVLnDeJNWSM9qs-293">
          <mxGeometry relative="1" as="geometry" />
        </mxCell>
        <mxCell id="K85-BwIVLnDeJNWSM9qs-291" value="&lt;font style=&quot;font-size: 18px;&quot;&gt;&lt;b&gt;管理台执行操作&lt;/b&gt;&lt;/font&gt;" style="ellipse;whiteSpace=wrap;html=1;" vertex="1" parent="1">
          <mxGeometry x="2910" y="-86.25" width="230" height="80" as="geometry" />
        </mxCell>
        <mxCell id="K85-BwIVLnDeJNWSM9qs-292" value="" style="shape=flexArrow;endArrow=classic;html=1;rounded=0;" edge="1" parent="1">
          <mxGeometry width="50" height="50" relative="1" as="geometry">
            <mxPoint x="2800" y="638.18" as="sourcePoint" />
            <mxPoint x="3940" y="640" as="targetPoint" />
          </mxGeometry>
        </mxCell>
        <mxCell id="K85-BwIVLnDeJNWSM9qs-296" value="" style="edgeStyle=orthogonalEdgeStyle;rounded=0;orthogonalLoop=1;jettySize=auto;html=1;entryX=0.5;entryY=0;entryDx=0;entryDy=0;" edge="1" parent="1" source="K85-BwIVLnDeJNWSM9qs-293" target="K85-BwIVLnDeJNWSM9qs-299">
          <mxGeometry relative="1" as="geometry">
            <mxPoint x="3025" y="303.75" as="targetPoint" />
          </mxGeometry>
        </mxCell>
        <mxCell id="K85-BwIVLnDeJNWSM9qs-293" value="&lt;font style=&quot;font-size: 18px;&quot;&gt;MigrateGroup&lt;/font&gt;" style="rounded=1;whiteSpace=wrap;html=1;" vertex="1" parent="1">
          <mxGeometry x="2920" y="83.75" width="210" height="60" as="geometry" />
        </mxCell>
        <mxCell id="K85-BwIVLnDeJNWSM9qs-298" value="&lt;b&gt;&lt;font style=&quot;font-size: 18px;&quot;&gt;RPC&lt;/font&gt;&lt;/b&gt;" style="text;html=1;align=center;verticalAlign=middle;whiteSpace=wrap;rounded=0;" vertex="1" parent="1">
          <mxGeometry x="3030" y="193.75" width="90" height="55" as="geometry" />
        </mxCell>
        <mxCell id="K85-BwIVLnDeJNWSM9qs-301" value="" style="edgeStyle=orthogonalEdgeStyle;rounded=0;orthogonalLoop=1;jettySize=auto;html=1;" edge="1" parent="1" source="K85-BwIVLnDeJNWSM9qs-299" target="K85-BwIVLnDeJNWSM9qs-300">
          <mxGeometry relative="1" as="geometry" />
        </mxCell>
        <mxCell id="K85-BwIVLnDeJNWSM9qs-299" value="&lt;font style=&quot;font-size: 18px;&quot;&gt;触发MDS执行MigrateGroup&lt;/font&gt;" style="rounded=1;whiteSpace=wrap;html=1;" vertex="1" parent="1">
          <mxGeometry x="2920" y="273.75" width="210" height="60" as="geometry" />
        </mxCell>
        <mxCell id="K85-BwIVLnDeJNWSM9qs-300" value="&lt;font style=&quot;font-size: 18px;&quot;&gt;AddGroupMigrateTask&lt;/font&gt;" style="rounded=1;whiteSpace=wrap;html=1;" vertex="1" parent="1">
          <mxGeometry x="2920" y="466.25" width="210" height="60" as="geometry" />
        </mxCell>
        <mxCell id="K85-BwIVLnDeJNWSM9qs-302" value="" style="edgeStyle=orthogonalEdgeStyle;rounded=0;orthogonalLoop=1;jettySize=auto;html=1;" edge="1" parent="1" source="K85-BwIVLnDeJNWSM9qs-303" target="K85-BwIVLnDeJNWSM9qs-305">
          <mxGeometry relative="1" as="geometry" />
        </mxCell>
        <mxCell id="K85-BwIVLnDeJNWSM9qs-303" value="&lt;font style=&quot;font-size: 18px;&quot;&gt;&lt;b&gt;Generate Group Task&lt;/b&gt;&lt;/font&gt;" style="ellipse;whiteSpace=wrap;html=1;" vertex="1" parent="1">
          <mxGeometry x="3483" y="140" width="160" height="70" as="geometry" />
        </mxCell>
        <mxCell id="K85-BwIVLnDeJNWSM9qs-304" value="" style="group" vertex="1" connectable="0" parent="1">
          <mxGeometry x="3308" y="360" width="510" height="240" as="geometry" />
        </mxCell>
        <mxCell id="K85-BwIVLnDeJNWSM9qs-305" value="" style="rounded=1;whiteSpace=wrap;html=1;fillColor=#d5e8d4;strokeColor=#82b366;" vertex="1" parent="K85-BwIVLnDeJNWSM9qs-304">
          <mxGeometry width="510" height="240" as="geometry" />
        </mxCell>
        <mxCell id="K85-BwIVLnDeJNWSM9qs-306" value="&lt;font style=&quot;font-size: 18px;&quot;&gt;&lt;b&gt;Task&lt;/b&gt;&lt;/font&gt;" style="text;html=1;align=center;verticalAlign=middle;whiteSpace=wrap;rounded=0;" vertex="1" parent="K85-BwIVLnDeJNWSM9qs-304">
          <mxGeometry x="27.28395061728395" y="10.370370370370438" width="62.96296296296297" height="31.111111111111107" as="geometry" />
        </mxCell>
        <mxCell id="K85-BwIVLnDeJNWSM9qs-307" value="" style="group" vertex="1" connectable="0" parent="K85-BwIVLnDeJNWSM9qs-304">
          <mxGeometry x="111.23456790123457" y="51.851851851851734" width="309.56790123456796" height="93.33333333333331" as="geometry" />
        </mxCell>
        <mxCell id="K85-BwIVLnDeJNWSM9qs-308" value="" style="rounded=1;whiteSpace=wrap;html=1;" vertex="1" parent="K85-BwIVLnDeJNWSM9qs-307">
          <mxGeometry width="304.320987654321" height="93.33333333333331" as="geometry" />
        </mxCell>
        <mxCell id="K85-BwIVLnDeJNWSM9qs-309" value="MASTER" style="rounded=1;whiteSpace=wrap;html=1;fillColor=#ffe6cc;strokeColor=#d79b00;" vertex="1" parent="K85-BwIVLnDeJNWSM9qs-307">
          <mxGeometry x="15.740740740740742" y="51.85185185185185" width="83.95061728395062" height="41.48148148148148" as="geometry" />
        </mxCell>
        <mxCell id="K85-BwIVLnDeJNWSM9qs-310" value="&lt;b&gt;&lt;font style=&quot;font-size: 14px;&quot;&gt;group_id:&lt;/font&gt;&lt;/b&gt;{vol_id:999, range_idx: 0,&amp;nbsp;&lt;b&gt;&lt;font color=&quot;#ff00ff&quot;&gt;group_idx: 0&lt;/font&gt;&lt;font color=&quot;#9ac7bf&quot;&gt;&amp;nbsp;&lt;/font&gt;&lt;/b&gt;}&lt;div&gt;&lt;font style=&quot;font-size: 18px;&quot;&gt;&lt;b&gt;id : 3&lt;/b&gt;&lt;/font&gt;&lt;/div&gt;" style="text;html=1;align=center;verticalAlign=middle;whiteSpace=wrap;rounded=0;" vertex="1" parent="K85-BwIVLnDeJNWSM9qs-307">
          <mxGeometry width="309.56790123456796" height="41.48148148148148" as="geometry" />
        </mxCell>
        <mxCell id="K85-BwIVLnDeJNWSM9qs-311" value="RUNNING" style="rounded=1;whiteSpace=wrap;html=1;fillColor=#ffe6cc;strokeColor=#d79b00;" vertex="1" parent="K85-BwIVLnDeJNWSM9qs-307">
          <mxGeometry x="204.62962962962965" y="51.85185185185185" width="83.95061728395062" height="41.48148148148148" as="geometry" />
        </mxCell>
        <mxCell id="K85-BwIVLnDeJNWSM9qs-312" value="&lt;font color=&quot;#ff0000&quot; style=&quot;font-size: 18px;&quot;&gt;&lt;b&gt;ds_id:0&lt;/b&gt;&lt;/font&gt;" style="rounded=1;whiteSpace=wrap;html=1;" vertex="1" parent="K85-BwIVLnDeJNWSM9qs-304">
          <mxGeometry x="27.280123456790122" y="159.99666666666667" width="125.92592592592594" height="62.222222222222214" as="geometry" />
        </mxCell>
        <mxCell id="K85-BwIVLnDeJNWSM9qs-313" value="&lt;font style=&quot;font-size: 18px;&quot;&gt;task_type:&lt;font color=&quot;#ff0000&quot;&gt;MIGRATE&lt;/font&gt;&lt;/font&gt;" style="rounded=1;whiteSpace=wrap;html=1;" vertex="1" parent="K85-BwIVLnDeJNWSM9qs-304">
          <mxGeometry x="309.9996296296297" y="159.99666666666667" width="188.8888888888889" height="62.222222222222214" as="geometry" />
        </mxCell>
        <mxCell id="K85-BwIVLnDeJNWSM9qs-316" value="" style="endArrow=classic;html=1;rounded=0;dashed=1;" edge="1" parent="1">
          <mxGeometry width="50" height="50" relative="1" as="geometry">
            <mxPoint x="3130" y="500" as="sourcePoint" />
            <mxPoint x="3300" y="500" as="targetPoint" />
          </mxGeometry>
        </mxCell>
        <mxCell id="K85-BwIVLnDeJNWSM9qs-317" value="" style="group" vertex="1" connectable="0" parent="1">
          <mxGeometry x="3940" y="510" width="600" height="260" as="geometry" />
        </mxCell>
        <mxCell id="K85-BwIVLnDeJNWSM9qs-318" value="" style="rounded=1;whiteSpace=wrap;html=1;fillColor=#dae8fc;strokeColor=#6c8ebf;" vertex="1" parent="K85-BwIVLnDeJNWSM9qs-317">
          <mxGeometry width="600" height="260" as="geometry" />
        </mxCell>
        <mxCell id="K85-BwIVLnDeJNWSM9qs-319" value="&lt;b&gt;&lt;font style=&quot;font-size: 14px;&quot;&gt;id:&lt;/font&gt;&lt;/b&gt;{vol_id:999, range_idx: 0, &lt;b&gt;&lt;font color=&quot;#ff00ff&quot;&gt;group_idx: 0&lt;/font&gt;&lt;font color=&quot;#9ac7bf&quot;&gt; &lt;/font&gt;&lt;/b&gt;}&lt;div&gt;&lt;b style=&quot;font-size: 14px;&quot;&gt;&lt;font style=&quot;font-size: 14px;&quot;&gt;ds_id &lt;/font&gt;:&lt;/b&gt;&lt;font style=&quot;font-size: 14px;&quot;&gt;&amp;nbsp;3&lt;/font&gt;&lt;/div&gt;" style="ellipse;whiteSpace=wrap;html=1;" vertex="1" parent="K85-BwIVLnDeJNWSM9qs-317">
          <mxGeometry x="10" y="87.5" width="270" height="85" as="geometry" />
        </mxCell>
        <mxCell id="K85-BwIVLnDeJNWSM9qs-320" value="&lt;font style=&quot;font-size: 18px;&quot;&gt;&lt;b&gt;Group&lt;/b&gt;&lt;/font&gt;" style="text;html=1;align=center;verticalAlign=middle;whiteSpace=wrap;rounded=0;" vertex="1" parent="K85-BwIVLnDeJNWSM9qs-317">
          <mxGeometry x="20" y="10" width="60" height="30" as="geometry" />
        </mxCell>
        <mxCell id="K85-BwIVLnDeJNWSM9qs-321" value="" style="group" vertex="1" connectable="0" parent="K85-BwIVLnDeJNWSM9qs-317">
          <mxGeometry x="280" y="20" width="295" height="90" as="geometry" />
        </mxCell>
        <mxCell id="K85-BwIVLnDeJNWSM9qs-322" value="" style="rounded=1;whiteSpace=wrap;html=1;" vertex="1" parent="K85-BwIVLnDeJNWSM9qs-321">
          <mxGeometry width="290" height="90" as="geometry" />
        </mxCell>
        <mxCell id="K85-BwIVLnDeJNWSM9qs-323" value="MASTER" style="rounded=1;whiteSpace=wrap;html=1;fillColor=#ffe6cc;strokeColor=#d79b00;" vertex="1" parent="K85-BwIVLnDeJNWSM9qs-321">
          <mxGeometry x="15" y="50" width="80" height="40" as="geometry" />
        </mxCell>
        <mxCell id="K85-BwIVLnDeJNWSM9qs-324" value="&lt;b&gt;&lt;font style=&quot;font-size: 14px;&quot;&gt;group_id:&lt;/font&gt;&lt;/b&gt;{vol_id:999, range_idx: 0,&amp;nbsp;&lt;b&gt;&lt;font color=&quot;#ff00ff&quot;&gt;group_idx: 0&lt;/font&gt;&lt;font color=&quot;#9ac7bf&quot;&gt;&amp;nbsp;&lt;/font&gt;&lt;/b&gt;}&lt;div&gt;&lt;b&gt;&lt;font style=&quot;font-size: 18px;&quot;&gt;id : 3&lt;/font&gt;&lt;/b&gt;&lt;/div&gt;" style="text;html=1;align=center;verticalAlign=middle;whiteSpace=wrap;rounded=0;" vertex="1" parent="K85-BwIVLnDeJNWSM9qs-321">
          <mxGeometry width="295" height="40" as="geometry" />
        </mxCell>
        <mxCell id="K85-BwIVLnDeJNWSM9qs-325" value="RUNNING" style="rounded=1;whiteSpace=wrap;html=1;fillColor=#ffe6cc;strokeColor=#d79b00;" vertex="1" parent="K85-BwIVLnDeJNWSM9qs-321">
          <mxGeometry x="195" y="50" width="80" height="40" as="geometry" />
        </mxCell>
        <mxCell id="K85-BwIVLnDeJNWSM9qs-335" value="" style="group" vertex="1" connectable="0" parent="K85-BwIVLnDeJNWSM9qs-317">
          <mxGeometry x="272.71456790123466" y="150.0018518518517" width="309.56790123456796" height="93.33333333333331" as="geometry" />
        </mxCell>
        <mxCell id="K85-BwIVLnDeJNWSM9qs-336" value="" style="rounded=1;whiteSpace=wrap;html=1;" vertex="1" parent="K85-BwIVLnDeJNWSM9qs-335">
          <mxGeometry width="304.320987654321" height="93.33333333333331" as="geometry" />
        </mxCell>
        <mxCell id="K85-BwIVLnDeJNWSM9qs-337" value="&lt;font color=&quot;#ff0000&quot;&gt;MIGRATE&lt;/font&gt;" style="rounded=1;whiteSpace=wrap;html=1;fillColor=#ffe6cc;strokeColor=#d79b00;" vertex="1" parent="K85-BwIVLnDeJNWSM9qs-335">
          <mxGeometry x="15.740740740740742" y="51.85185185185185" width="83.95061728395062" height="41.48148148148148" as="geometry" />
        </mxCell>
        <mxCell id="K85-BwIVLnDeJNWSM9qs-338" value="&lt;b&gt;&lt;font style=&quot;font-size: 14px;&quot;&gt;group_id:&lt;/font&gt;&lt;/b&gt;{vol_id:999, range_idx: 0,&amp;nbsp;&lt;b&gt;&lt;font color=&quot;#ff00ff&quot;&gt;group_idx: 0&lt;/font&gt;&lt;font color=&quot;#9ac7bf&quot;&gt;&amp;nbsp;&lt;/font&gt;&lt;/b&gt;}&lt;div&gt;&lt;font color=&quot;#ff0000&quot; style=&quot;font-size: 18px;&quot;&gt;&lt;b&gt;id : 0&lt;/b&gt;&lt;/font&gt;&lt;/div&gt;" style="text;html=1;align=center;verticalAlign=middle;whiteSpace=wrap;rounded=0;" vertex="1" parent="K85-BwIVLnDeJNWSM9qs-335">
          <mxGeometry width="309.56790123456796" height="41.48148148148148" as="geometry" />
        </mxCell>
        <mxCell id="K85-BwIVLnDeJNWSM9qs-339" value="&lt;font color=&quot;#ff0000&quot;&gt;UNINIT&lt;/font&gt;" style="rounded=1;whiteSpace=wrap;html=1;fillColor=#ffe6cc;strokeColor=#d79b00;" vertex="1" parent="K85-BwIVLnDeJNWSM9qs-335">
          <mxGeometry x="204.62962962962965" y="51.85185185185185" width="83.95061728395062" height="41.48148148148148" as="geometry" />
        </mxCell>
        <mxCell id="K85-BwIVLnDeJNWSM9qs-331" value="&lt;font style=&quot;font-size: 18px;&quot;&gt;&lt;b&gt;DoMigrateGroupTask&lt;/b&gt;&lt;/font&gt;" style="ellipse;whiteSpace=wrap;html=1;" vertex="1" parent="1">
          <mxGeometry x="4140" y="140" width="200" height="70" as="geometry" />
        </mxCell>
        <mxCell id="K85-BwIVLnDeJNWSM9qs-332" value="" style="edgeStyle=orthogonalEdgeStyle;rounded=0;orthogonalLoop=1;jettySize=auto;html=1;entryX=0.5;entryY=0;entryDx=0;entryDy=0;" edge="1" parent="1" source="K85-BwIVLnDeJNWSM9qs-333" target="K85-BwIVLnDeJNWSM9qs-318">
          <mxGeometry relative="1" as="geometry">
            <mxPoint x="4240" y="490" as="targetPoint" />
          </mxGeometry>
        </mxCell>
        <mxCell id="K85-BwIVLnDeJNWSM9qs-333" value="" style="rounded=1;whiteSpace=wrap;html=1;" vertex="1" parent="1">
          <mxGeometry x="4135" y="330" width="210" height="60" as="geometry" />
        </mxCell>
        <mxCell id="K85-BwIVLnDeJNWSM9qs-334" value="" style="edgeStyle=orthogonalEdgeStyle;rounded=0;orthogonalLoop=1;jettySize=auto;html=1;exitX=0.5;exitY=1;exitDx=0;exitDy=0;" edge="1" parent="1" source="K85-BwIVLnDeJNWSM9qs-331">
          <mxGeometry relative="1" as="geometry">
            <mxPoint x="4239.73" y="230" as="sourcePoint" />
            <mxPoint x="4239.73" y="330" as="targetPoint" />
            <Array as="points" />
          </mxGeometry>
        </mxCell>
        <mxCell id="K85-BwIVLnDeJNWSM9qs-368" value="&lt;font style=&quot;font-size: 18px;&quot;&gt;BindGroup&lt;/font&gt;" style="rhombus;whiteSpace=wrap;html=1;fillColor=#e1d5e7;strokeColor=#9673a6;" vertex="1" parent="1">
          <mxGeometry x="4830" y="590" width="220" height="100" as="geometry" />
        </mxCell>
        <mxCell id="K85-BwIVLnDeJNWSM9qs-369" value="" style="shape=flexArrow;endArrow=classic;html=1;rounded=0;entryX=0;entryY=0.5;entryDx=0;entryDy=0;exitX=0.5;exitY=0;exitDx=0;exitDy=0;" edge="1" parent="1" source="K85-BwIVLnDeJNWSM9qs-368" target="K85-BwIVLnDeJNWSM9qs-375">
          <mxGeometry width="50" height="50" relative="1" as="geometry">
            <mxPoint x="4943" y="586" as="sourcePoint" />
            <mxPoint x="5243" y="316" as="targetPoint" />
          </mxGeometry>
        </mxCell>
        <mxCell id="K85-BwIVLnDeJNWSM9qs-370" value="" style="shape=flexArrow;endArrow=classic;html=1;rounded=0;entryX=-0.005;entryY=0.53;entryDx=0;entryDy=0;exitX=0.5;exitY=1;exitDx=0;exitDy=0;entryPerimeter=0;" edge="1" parent="1" source="K85-BwIVLnDeJNWSM9qs-368" target="K85-BwIVLnDeJNWSM9qs-389">
          <mxGeometry width="50" height="50" relative="1" as="geometry">
            <mxPoint x="4950" y="1146" as="sourcePoint" />
            <mxPoint x="5243" y="876" as="targetPoint" />
          </mxGeometry>
        </mxCell>
        <mxCell id="K85-BwIVLnDeJNWSM9qs-371" value="成功" style="text;html=1;align=center;verticalAlign=middle;whiteSpace=wrap;rounded=0;" vertex="1" parent="1">
          <mxGeometry x="5033" y="426" width="60" height="30" as="geometry" />
        </mxCell>
        <mxCell id="K85-BwIVLnDeJNWSM9qs-372" value="失败" style="text;html=1;align=center;verticalAlign=middle;whiteSpace=wrap;rounded=0;" vertex="1" parent="1">
          <mxGeometry x="5033" y="776" width="60" height="30" as="geometry" />
        </mxCell>
        <mxCell id="K85-BwIVLnDeJNWSM9qs-373" value="" style="shape=flexArrow;endArrow=classic;html=1;rounded=0;" edge="1" parent="1">
          <mxGeometry width="50" height="50" relative="1" as="geometry">
            <mxPoint x="4540" y="639" as="sourcePoint" />
            <mxPoint x="4830" y="640" as="targetPoint" />
          </mxGeometry>
        </mxCell>
        <mxCell id="K85-BwIVLnDeJNWSM9qs-374" value="" style="group" vertex="1" connectable="0" parent="1">
          <mxGeometry x="5240" y="190" width="600" height="260" as="geometry" />
        </mxCell>
        <mxCell id="K85-BwIVLnDeJNWSM9qs-375" value="" style="rounded=1;whiteSpace=wrap;html=1;fillColor=#dae8fc;strokeColor=#6c8ebf;" vertex="1" parent="K85-BwIVLnDeJNWSM9qs-374">
          <mxGeometry width="600" height="260" as="geometry" />
        </mxCell>
        <mxCell id="K85-BwIVLnDeJNWSM9qs-376" value="&lt;b&gt;&lt;font style=&quot;font-size: 14px;&quot;&gt;id:&lt;/font&gt;&lt;/b&gt;{vol_id:999, range_idx: 0, &lt;b&gt;&lt;font color=&quot;#ff00ff&quot;&gt;group_idx: 0&lt;/font&gt;&lt;font color=&quot;#9ac7bf&quot;&gt; &lt;/font&gt;&lt;/b&gt;}&lt;div&gt;&lt;b style=&quot;font-size: 14px;&quot;&gt;&lt;font style=&quot;font-size: 14px;&quot;&gt;ds_id &lt;/font&gt;:&lt;/b&gt;&lt;font style=&quot;font-size: 14px;&quot;&gt;&amp;nbsp;3&lt;/font&gt;&lt;/div&gt;" style="ellipse;whiteSpace=wrap;html=1;" vertex="1" parent="K85-BwIVLnDeJNWSM9qs-374">
          <mxGeometry x="10" y="87.5" width="270" height="85" as="geometry" />
        </mxCell>
        <mxCell id="K85-BwIVLnDeJNWSM9qs-377" value="&lt;font style=&quot;font-size: 18px;&quot;&gt;&lt;b&gt;Group&lt;/b&gt;&lt;/font&gt;" style="text;html=1;align=center;verticalAlign=middle;whiteSpace=wrap;rounded=0;" vertex="1" parent="K85-BwIVLnDeJNWSM9qs-374">
          <mxGeometry x="20" y="10" width="60" height="30" as="geometry" />
        </mxCell>
        <mxCell id="K85-BwIVLnDeJNWSM9qs-378" value="" style="group" vertex="1" connectable="0" parent="K85-BwIVLnDeJNWSM9qs-374">
          <mxGeometry x="280" y="20" width="295" height="90" as="geometry" />
        </mxCell>
        <mxCell id="K85-BwIVLnDeJNWSM9qs-379" value="" style="rounded=1;whiteSpace=wrap;html=1;" vertex="1" parent="K85-BwIVLnDeJNWSM9qs-378">
          <mxGeometry width="290" height="90" as="geometry" />
        </mxCell>
        <mxCell id="K85-BwIVLnDeJNWSM9qs-380" value="MASTER" style="rounded=1;whiteSpace=wrap;html=1;fillColor=#ffe6cc;strokeColor=#d79b00;" vertex="1" parent="K85-BwIVLnDeJNWSM9qs-378">
          <mxGeometry x="15" y="50" width="80" height="40" as="geometry" />
        </mxCell>
        <mxCell id="K85-BwIVLnDeJNWSM9qs-381" value="&lt;b&gt;&lt;font style=&quot;font-size: 14px;&quot;&gt;group_id:&lt;/font&gt;&lt;/b&gt;{vol_id:999, range_idx: 0,&amp;nbsp;&lt;b&gt;&lt;font color=&quot;#ff00ff&quot;&gt;group_idx: 0&lt;/font&gt;&lt;font color=&quot;#9ac7bf&quot;&gt;&amp;nbsp;&lt;/font&gt;&lt;/b&gt;}&lt;div&gt;&lt;b&gt;&lt;font style=&quot;font-size: 18px;&quot;&gt;id : 3&lt;/font&gt;&lt;/b&gt;&lt;/div&gt;" style="text;html=1;align=center;verticalAlign=middle;whiteSpace=wrap;rounded=0;" vertex="1" parent="K85-BwIVLnDeJNWSM9qs-378">
          <mxGeometry width="295" height="40" as="geometry" />
        </mxCell>
        <mxCell id="K85-BwIVLnDeJNWSM9qs-382" value="RUNNING" style="rounded=1;whiteSpace=wrap;html=1;fillColor=#ffe6cc;strokeColor=#d79b00;" vertex="1" parent="K85-BwIVLnDeJNWSM9qs-378">
          <mxGeometry x="195" y="50" width="80" height="40" as="geometry" />
        </mxCell>
        <mxCell id="K85-BwIVLnDeJNWSM9qs-383" value="" style="group" vertex="1" connectable="0" parent="K85-BwIVLnDeJNWSM9qs-374">
          <mxGeometry x="272.71456790123466" y="150.0018518518517" width="309.56790123456796" height="93.33333333333331" as="geometry" />
        </mxCell>
        <mxCell id="K85-BwIVLnDeJNWSM9qs-384" value="" style="rounded=1;whiteSpace=wrap;html=1;" vertex="1" parent="K85-BwIVLnDeJNWSM9qs-383">
          <mxGeometry width="304.320987654321" height="93.33333333333331" as="geometry" />
        </mxCell>
        <mxCell id="K85-BwIVLnDeJNWSM9qs-385" value="MIGRATE" style="rounded=1;whiteSpace=wrap;html=1;fillColor=#ffe6cc;strokeColor=#d79b00;" vertex="1" parent="K85-BwIVLnDeJNWSM9qs-383">
          <mxGeometry x="15.740740740740742" y="51.85185185185185" width="83.95061728395062" height="41.48148148148148" as="geometry" />
        </mxCell>
        <mxCell id="K85-BwIVLnDeJNWSM9qs-386" value="&lt;b&gt;&lt;font style=&quot;font-size: 14px;&quot;&gt;group_id:&lt;/font&gt;&lt;/b&gt;{vol_id:999, range_idx: 0,&amp;nbsp;&lt;b&gt;&lt;font color=&quot;#ff00ff&quot;&gt;group_idx: 0&lt;/font&gt;&lt;font color=&quot;#9ac7bf&quot;&gt;&amp;nbsp;&lt;/font&gt;&lt;/b&gt;}&lt;div&gt;&lt;font style=&quot;font-size: 18px;&quot;&gt;&lt;b style=&quot;&quot;&gt;id : 0&lt;/b&gt;&lt;/font&gt;&lt;/div&gt;" style="text;html=1;align=center;verticalAlign=middle;whiteSpace=wrap;rounded=0;" vertex="1" parent="K85-BwIVLnDeJNWSM9qs-383">
          <mxGeometry width="309.56790123456796" height="41.48148148148148" as="geometry" />
        </mxCell>
        <mxCell id="K85-BwIVLnDeJNWSM9qs-387" value="&lt;font color=&quot;#ff0000&quot;&gt;BINDING&lt;/font&gt;" style="rounded=1;whiteSpace=wrap;html=1;fillColor=#ffe6cc;strokeColor=#d79b00;" vertex="1" parent="K85-BwIVLnDeJNWSM9qs-383">
          <mxGeometry x="204.62962962962965" y="51.85185185185185" width="83.95061728395062" height="41.48148148148148" as="geometry" />
        </mxCell>
        <mxCell id="K85-BwIVLnDeJNWSM9qs-388" value="" style="group" vertex="1" connectable="0" parent="1">
          <mxGeometry x="5240" y="780" width="600" height="260" as="geometry" />
        </mxCell>
        <mxCell id="K85-BwIVLnDeJNWSM9qs-389" value="" style="rounded=1;whiteSpace=wrap;html=1;fillColor=#dae8fc;strokeColor=#6c8ebf;" vertex="1" parent="K85-BwIVLnDeJNWSM9qs-388">
          <mxGeometry width="600" height="260" as="geometry" />
        </mxCell>
        <mxCell id="K85-BwIVLnDeJNWSM9qs-390" value="&lt;b&gt;&lt;font style=&quot;font-size: 14px;&quot;&gt;id:&lt;/font&gt;&lt;/b&gt;{vol_id:999, range_idx: 0, &lt;b&gt;&lt;font color=&quot;#ff00ff&quot;&gt;group_idx: 0&lt;/font&gt;&lt;font color=&quot;#9ac7bf&quot;&gt; &lt;/font&gt;&lt;/b&gt;}&lt;div&gt;&lt;b style=&quot;font-size: 14px;&quot;&gt;&lt;font style=&quot;font-size: 14px;&quot;&gt;ds_id &lt;/font&gt;:&lt;/b&gt;&lt;font style=&quot;font-size: 14px;&quot;&gt;&amp;nbsp;3&lt;/font&gt;&lt;/div&gt;" style="ellipse;whiteSpace=wrap;html=1;" vertex="1" parent="K85-BwIVLnDeJNWSM9qs-388">
          <mxGeometry x="10" y="87.5" width="270" height="85" as="geometry" />
        </mxCell>
        <mxCell id="K85-BwIVLnDeJNWSM9qs-391" value="&lt;font style=&quot;font-size: 18px;&quot;&gt;&lt;b&gt;Group&lt;/b&gt;&lt;/font&gt;" style="text;html=1;align=center;verticalAlign=middle;whiteSpace=wrap;rounded=0;" vertex="1" parent="K85-BwIVLnDeJNWSM9qs-388">
          <mxGeometry x="20" y="10" width="60" height="30" as="geometry" />
        </mxCell>
        <mxCell id="K85-BwIVLnDeJNWSM9qs-392" value="" style="group" vertex="1" connectable="0" parent="K85-BwIVLnDeJNWSM9qs-388">
          <mxGeometry x="280" y="20" width="295" height="90" as="geometry" />
        </mxCell>
        <mxCell id="K85-BwIVLnDeJNWSM9qs-393" value="" style="rounded=1;whiteSpace=wrap;html=1;" vertex="1" parent="K85-BwIVLnDeJNWSM9qs-392">
          <mxGeometry width="290" height="90" as="geometry" />
        </mxCell>
        <mxCell id="K85-BwIVLnDeJNWSM9qs-394" value="MASTER" style="rounded=1;whiteSpace=wrap;html=1;fillColor=#ffe6cc;strokeColor=#d79b00;" vertex="1" parent="K85-BwIVLnDeJNWSM9qs-392">
          <mxGeometry x="15" y="50" width="80" height="40" as="geometry" />
        </mxCell>
        <mxCell id="K85-BwIVLnDeJNWSM9qs-395" value="&lt;b&gt;&lt;font style=&quot;font-size: 14px;&quot;&gt;group_id:&lt;/font&gt;&lt;/b&gt;{vol_id:999, range_idx: 0,&amp;nbsp;&lt;b&gt;&lt;font color=&quot;#ff00ff&quot;&gt;group_idx: 0&lt;/font&gt;&lt;font color=&quot;#9ac7bf&quot;&gt;&amp;nbsp;&lt;/font&gt;&lt;/b&gt;}&lt;div&gt;&lt;b&gt;&lt;font style=&quot;font-size: 18px;&quot;&gt;id : 3&lt;/font&gt;&lt;/b&gt;&lt;/div&gt;" style="text;html=1;align=center;verticalAlign=middle;whiteSpace=wrap;rounded=0;" vertex="1" parent="K85-BwIVLnDeJNWSM9qs-392">
          <mxGeometry width="295" height="40" as="geometry" />
        </mxCell>
        <mxCell id="K85-BwIVLnDeJNWSM9qs-396" value="RUNNING" style="rounded=1;whiteSpace=wrap;html=1;fillColor=#ffe6cc;strokeColor=#d79b00;" vertex="1" parent="K85-BwIVLnDeJNWSM9qs-392">
          <mxGeometry x="195" y="50" width="80" height="40" as="geometry" />
        </mxCell>
        <mxCell id="K85-BwIVLnDeJNWSM9qs-397" value="" style="group" vertex="1" connectable="0" parent="K85-BwIVLnDeJNWSM9qs-388">
          <mxGeometry x="272.71456790123466" y="150.0018518518517" width="309.56790123456796" height="93.33333333333331" as="geometry" />
        </mxCell>
        <mxCell id="K85-BwIVLnDeJNWSM9qs-398" value="" style="rounded=1;whiteSpace=wrap;html=1;" vertex="1" parent="K85-BwIVLnDeJNWSM9qs-397">
          <mxGeometry width="304.320987654321" height="93.33333333333331" as="geometry" />
        </mxCell>
        <mxCell id="K85-BwIVLnDeJNWSM9qs-399" value="MIGRATE" style="rounded=1;whiteSpace=wrap;html=1;fillColor=#ffe6cc;strokeColor=#d79b00;" vertex="1" parent="K85-BwIVLnDeJNWSM9qs-397">
          <mxGeometry x="15.740740740740742" y="51.85185185185185" width="83.95061728395062" height="41.48148148148148" as="geometry" />
        </mxCell>
        <mxCell id="K85-BwIVLnDeJNWSM9qs-400" value="&lt;b&gt;&lt;font style=&quot;font-size: 14px;&quot;&gt;group_id:&lt;/font&gt;&lt;/b&gt;{vol_id:999, range_idx: 0,&amp;nbsp;&lt;b&gt;&lt;font color=&quot;#ff00ff&quot;&gt;group_idx: 0&lt;/font&gt;&lt;font color=&quot;#9ac7bf&quot;&gt;&amp;nbsp;&lt;/font&gt;&lt;/b&gt;}&lt;div&gt;&lt;font style=&quot;font-size: 18px;&quot;&gt;&lt;b style=&quot;&quot;&gt;id : 0&lt;/b&gt;&lt;/font&gt;&lt;/div&gt;" style="text;html=1;align=center;verticalAlign=middle;whiteSpace=wrap;rounded=0;" vertex="1" parent="K85-BwIVLnDeJNWSM9qs-397">
          <mxGeometry width="309.56790123456796" height="41.48148148148148" as="geometry" />
        </mxCell>
        <mxCell id="K85-BwIVLnDeJNWSM9qs-401" value="&lt;font color=&quot;#ff0000&quot;&gt;DOWN&lt;/font&gt;" style="rounded=1;whiteSpace=wrap;html=1;fillColor=#ffe6cc;strokeColor=#d79b00;" vertex="1" parent="K85-BwIVLnDeJNWSM9qs-397">
          <mxGeometry x="204.62962962962965" y="51.85185185185185" width="83.95061728395062" height="41.48148148148148" as="geometry" />
        </mxCell>
        <mxCell id="K85-BwIVLnDeJNWSM9qs-402" value="" style="shape=flexArrow;endArrow=classic;html=1;rounded=0;" edge="1" parent="1">
          <mxGeometry width="50" height="50" relative="1" as="geometry">
            <mxPoint x="5840" y="319.17" as="sourcePoint" />
            <mxPoint x="6130" y="320.17" as="targetPoint" />
          </mxGeometry>
        </mxCell>
        <mxCell id="K85-BwIVLnDeJNWSM9qs-403" value="Dataserver上报状态：RUNNING_BACKUP" style="ellipse;whiteSpace=wrap;html=1;fillColor=#d80073;fontColor=#ffffff;strokeColor=#A50040;" vertex="1" parent="1">
          <mxGeometry x="5860" y="248.75" width="250" height="55" as="geometry" />
        </mxCell>
        <mxCell id="K85-BwIVLnDeJNWSM9qs-404" value="" style="group" vertex="1" connectable="0" parent="1">
          <mxGeometry x="6130" y="190" width="600" height="260" as="geometry" />
        </mxCell>
        <mxCell id="K85-BwIVLnDeJNWSM9qs-405" value="" style="rounded=1;whiteSpace=wrap;html=1;fillColor=#dae8fc;strokeColor=#6c8ebf;" vertex="1" parent="K85-BwIVLnDeJNWSM9qs-404">
          <mxGeometry width="600" height="260" as="geometry" />
        </mxCell>
        <mxCell id="K85-BwIVLnDeJNWSM9qs-406" value="&lt;b&gt;&lt;font style=&quot;font-size: 14px;&quot;&gt;id:&lt;/font&gt;&lt;/b&gt;{vol_id:999, range_idx: 0, &lt;b&gt;&lt;font color=&quot;#ff00ff&quot;&gt;group_idx: 0&lt;/font&gt;&lt;font color=&quot;#9ac7bf&quot;&gt; &lt;/font&gt;&lt;/b&gt;}&lt;div&gt;&lt;b style=&quot;font-size: 14px;&quot;&gt;&lt;font style=&quot;font-size: 14px;&quot;&gt;ds_id &lt;/font&gt;:&lt;/b&gt;&lt;font style=&quot;font-size: 14px;&quot;&gt;&amp;nbsp;3&lt;/font&gt;&lt;/div&gt;" style="ellipse;whiteSpace=wrap;html=1;" vertex="1" parent="K85-BwIVLnDeJNWSM9qs-404">
          <mxGeometry x="10" y="87.5" width="270" height="85" as="geometry" />
        </mxCell>
        <mxCell id="K85-BwIVLnDeJNWSM9qs-407" value="&lt;font style=&quot;font-size: 18px;&quot;&gt;&lt;b&gt;Group&lt;/b&gt;&lt;/font&gt;" style="text;html=1;align=center;verticalAlign=middle;whiteSpace=wrap;rounded=0;" vertex="1" parent="K85-BwIVLnDeJNWSM9qs-404">
          <mxGeometry x="20" y="10" width="60" height="30" as="geometry" />
        </mxCell>
        <mxCell id="K85-BwIVLnDeJNWSM9qs-408" value="" style="group" vertex="1" connectable="0" parent="K85-BwIVLnDeJNWSM9qs-404">
          <mxGeometry x="280" y="20" width="295" height="90" as="geometry" />
        </mxCell>
        <mxCell id="K85-BwIVLnDeJNWSM9qs-409" value="" style="rounded=1;whiteSpace=wrap;html=1;" vertex="1" parent="K85-BwIVLnDeJNWSM9qs-408">
          <mxGeometry width="290" height="90" as="geometry" />
        </mxCell>
        <mxCell id="K85-BwIVLnDeJNWSM9qs-410" value="MASTER" style="rounded=1;whiteSpace=wrap;html=1;fillColor=#ffe6cc;strokeColor=#d79b00;" vertex="1" parent="K85-BwIVLnDeJNWSM9qs-408">
          <mxGeometry x="15" y="50" width="80" height="40" as="geometry" />
        </mxCell>
        <mxCell id="K85-BwIVLnDeJNWSM9qs-411" value="&lt;b&gt;&lt;font style=&quot;font-size: 14px;&quot;&gt;group_id:&lt;/font&gt;&lt;/b&gt;{vol_id:999, range_idx: 0,&amp;nbsp;&lt;b&gt;&lt;font color=&quot;#ff00ff&quot;&gt;group_idx: 0&lt;/font&gt;&lt;font color=&quot;#9ac7bf&quot;&gt;&amp;nbsp;&lt;/font&gt;&lt;/b&gt;}&lt;div&gt;&lt;b&gt;&lt;font style=&quot;font-size: 18px;&quot;&gt;id : 3&lt;/font&gt;&lt;/b&gt;&lt;/div&gt;" style="text;html=1;align=center;verticalAlign=middle;whiteSpace=wrap;rounded=0;" vertex="1" parent="K85-BwIVLnDeJNWSM9qs-408">
          <mxGeometry width="295" height="40" as="geometry" />
        </mxCell>
        <mxCell id="K85-BwIVLnDeJNWSM9qs-412" value="RUNNING" style="rounded=1;whiteSpace=wrap;html=1;fillColor=#ffe6cc;strokeColor=#d79b00;" vertex="1" parent="K85-BwIVLnDeJNWSM9qs-408">
          <mxGeometry x="195" y="50" width="80" height="40" as="geometry" />
        </mxCell>
        <mxCell id="K85-BwIVLnDeJNWSM9qs-413" value="" style="group" vertex="1" connectable="0" parent="K85-BwIVLnDeJNWSM9qs-404">
          <mxGeometry x="272.71456790123466" y="150.0018518518517" width="320" height="93.33333333333331" as="geometry" />
        </mxCell>
        <mxCell id="K85-BwIVLnDeJNWSM9qs-414" value="" style="rounded=1;whiteSpace=wrap;html=1;" vertex="1" parent="K85-BwIVLnDeJNWSM9qs-413">
          <mxGeometry width="304.320987654321" height="93.33333333333331" as="geometry" />
        </mxCell>
        <mxCell id="K85-BwIVLnDeJNWSM9qs-415" value="MIGRATE" style="rounded=1;whiteSpace=wrap;html=1;fillColor=#ffe6cc;strokeColor=#d79b00;" vertex="1" parent="K85-BwIVLnDeJNWSM9qs-413">
          <mxGeometry x="15.740740740740742" y="51.85185185185185" width="83.95061728395062" height="41.48148148148148" as="geometry" />
        </mxCell>
        <mxCell id="K85-BwIVLnDeJNWSM9qs-416" value="&lt;b&gt;&lt;font style=&quot;font-size: 14px;&quot;&gt;group_id:&lt;/font&gt;&lt;/b&gt;{vol_id:999, range_idx: 0,&amp;nbsp;&lt;b&gt;&lt;font color=&quot;#ff00ff&quot;&gt;group_idx: 0&lt;/font&gt;&lt;font color=&quot;#9ac7bf&quot;&gt;&amp;nbsp;&lt;/font&gt;&lt;/b&gt;}&lt;div&gt;&lt;font style=&quot;font-size: 18px;&quot;&gt;&lt;b style=&quot;&quot;&gt;id : 0&lt;/b&gt;&lt;/font&gt;&lt;/div&gt;" style="text;html=1;align=center;verticalAlign=middle;whiteSpace=wrap;rounded=0;" vertex="1" parent="K85-BwIVLnDeJNWSM9qs-413">
          <mxGeometry width="309.56790123456796" height="41.48148148148148" as="geometry" />
        </mxCell>
        <mxCell id="K85-BwIVLnDeJNWSM9qs-417" value="&lt;font color=&quot;#ff0000&quot;&gt;RUNNING_BACKUP&lt;/font&gt;" style="rounded=1;whiteSpace=wrap;html=1;fillColor=#ffe6cc;strokeColor=#d79b00;" vertex="1" parent="K85-BwIVLnDeJNWSM9qs-413">
          <mxGeometry x="167.29" y="51.85" width="115.37" height="41.48" as="geometry" />
        </mxCell>
        <mxCell id="K85-BwIVLnDeJNWSM9qs-418" value="" style="edgeStyle=orthogonalEdgeStyle;rounded=0;orthogonalLoop=1;jettySize=auto;html=1;" edge="1" parent="1" source="K85-BwIVLnDeJNWSM9qs-419" target="K85-BwIVLnDeJNWSM9qs-421">
          <mxGeometry relative="1" as="geometry" />
        </mxCell>
        <mxCell id="K85-BwIVLnDeJNWSM9qs-419" value="&lt;font style=&quot;font-size: 18px;&quot;&gt;&lt;b&gt;Generate Group Task&lt;/b&gt;&lt;/font&gt;" style="ellipse;whiteSpace=wrap;html=1;" vertex="1" parent="1">
          <mxGeometry x="7005" y="-160" width="160" height="70" as="geometry" />
        </mxCell>
        <mxCell id="K85-BwIVLnDeJNWSM9qs-420" value="" style="group" vertex="1" connectable="0" parent="1">
          <mxGeometry x="6830" y="60" width="510" height="240" as="geometry" />
        </mxCell>
        <mxCell id="K85-BwIVLnDeJNWSM9qs-421" value="" style="rounded=1;whiteSpace=wrap;html=1;fillColor=#d5e8d4;strokeColor=#82b366;" vertex="1" parent="K85-BwIVLnDeJNWSM9qs-420">
          <mxGeometry width="510" height="240" as="geometry" />
        </mxCell>
        <mxCell id="K85-BwIVLnDeJNWSM9qs-422" value="&lt;font style=&quot;font-size: 18px;&quot;&gt;&lt;b&gt;Task&lt;/b&gt;&lt;/font&gt;" style="text;html=1;align=center;verticalAlign=middle;whiteSpace=wrap;rounded=0;" vertex="1" parent="K85-BwIVLnDeJNWSM9qs-420">
          <mxGeometry x="27.28395061728395" y="10.370370370370438" width="62.96296296296297" height="31.111111111111107" as="geometry" />
        </mxCell>
        <mxCell id="K85-BwIVLnDeJNWSM9qs-423" value="" style="group" vertex="1" connectable="0" parent="K85-BwIVLnDeJNWSM9qs-420">
          <mxGeometry x="111.23456790123457" y="51.851851851851734" width="309.56790123456796" height="93.33333333333331" as="geometry" />
        </mxCell>
        <mxCell id="K85-BwIVLnDeJNWSM9qs-424" value="" style="rounded=1;whiteSpace=wrap;html=1;" vertex="1" parent="K85-BwIVLnDeJNWSM9qs-423">
          <mxGeometry width="304.320987654321" height="93.33333333333331" as="geometry" />
        </mxCell>
        <mxCell id="K85-BwIVLnDeJNWSM9qs-425" value="MASTER" style="rounded=1;whiteSpace=wrap;html=1;fillColor=#ffe6cc;strokeColor=#d79b00;" vertex="1" parent="K85-BwIVLnDeJNWSM9qs-423">
          <mxGeometry x="15.740740740740742" y="51.85185185185185" width="83.95061728395062" height="41.48148148148148" as="geometry" />
        </mxCell>
        <mxCell id="K85-BwIVLnDeJNWSM9qs-426" value="&lt;b&gt;&lt;font style=&quot;font-size: 14px;&quot;&gt;group_id:&lt;/font&gt;&lt;/b&gt;{vol_id:999, range_idx: 0,&amp;nbsp;&lt;b&gt;&lt;font color=&quot;#ff00ff&quot;&gt;group_idx: 0&lt;/font&gt;&lt;font color=&quot;#9ac7bf&quot;&gt;&amp;nbsp;&lt;/font&gt;&lt;/b&gt;}&lt;div&gt;&lt;font style=&quot;font-size: 18px;&quot;&gt;&lt;b&gt;id : 3&lt;/b&gt;&lt;/font&gt;&lt;/div&gt;" style="text;html=1;align=center;verticalAlign=middle;whiteSpace=wrap;rounded=0;" vertex="1" parent="K85-BwIVLnDeJNWSM9qs-423">
          <mxGeometry width="309.56790123456796" height="41.48148148148148" as="geometry" />
        </mxCell>
        <mxCell id="K85-BwIVLnDeJNWSM9qs-427" value="RUNNING" style="rounded=1;whiteSpace=wrap;html=1;fillColor=#ffe6cc;strokeColor=#d79b00;" vertex="1" parent="K85-BwIVLnDeJNWSM9qs-423">
          <mxGeometry x="204.62962962962965" y="51.85185185185185" width="83.95061728395062" height="41.48148148148148" as="geometry" />
        </mxCell>
        <mxCell id="K85-BwIVLnDeJNWSM9qs-428" value="&lt;font color=&quot;#ff0000&quot; style=&quot;font-size: 18px;&quot;&gt;&lt;b&gt;ds_id:0&lt;/b&gt;&lt;/font&gt;" style="rounded=1;whiteSpace=wrap;html=1;" vertex="1" parent="K85-BwIVLnDeJNWSM9qs-420">
          <mxGeometry x="27.280123456790122" y="159.99666666666667" width="125.92592592592594" height="62.222222222222214" as="geometry" />
        </mxCell>
        <mxCell id="K85-BwIVLnDeJNWSM9qs-429" value="&lt;font style=&quot;font-size: 18px;&quot;&gt;task_type:&lt;font color=&quot;#ff0000&quot;&gt;MIGRATE&lt;/font&gt;&lt;/font&gt;" style="rounded=1;whiteSpace=wrap;html=1;" vertex="1" parent="K85-BwIVLnDeJNWSM9qs-420">
          <mxGeometry x="309.9996296296297" y="159.99666666666667" width="188.8888888888889" height="62.222222222222214" as="geometry" />
        </mxCell>
        <mxCell id="K85-BwIVLnDeJNWSM9qs-430" value="" style="shape=flexArrow;endArrow=classic;html=1;rounded=0;" edge="1" parent="1">
          <mxGeometry width="50" height="50" relative="1" as="geometry">
            <mxPoint x="6730" y="319" as="sourcePoint" />
            <mxPoint x="7370" y="320" as="targetPoint" />
          </mxGeometry>
        </mxCell>
        <mxCell id="K85-BwIVLnDeJNWSM9qs-431" value="" style="group" vertex="1" connectable="0" parent="1">
          <mxGeometry x="7370" y="190" width="600" height="260" as="geometry" />
        </mxCell>
        <mxCell id="K85-BwIVLnDeJNWSM9qs-432" value="" style="rounded=1;whiteSpace=wrap;html=1;fillColor=#dae8fc;strokeColor=#6c8ebf;" vertex="1" parent="K85-BwIVLnDeJNWSM9qs-431">
          <mxGeometry width="600" height="260" as="geometry" />
        </mxCell>
        <mxCell id="K85-BwIVLnDeJNWSM9qs-433" value="&lt;b&gt;&lt;font style=&quot;font-size: 14px;&quot;&gt;id:&lt;/font&gt;&lt;/b&gt;{vol_id:999, range_idx: 0, &lt;b&gt;&lt;font color=&quot;#ff00ff&quot;&gt;group_idx: 0&lt;/font&gt;&lt;font color=&quot;#9ac7bf&quot;&gt; &lt;/font&gt;&lt;/b&gt;}&lt;div&gt;&lt;b style=&quot;font-size: 14px;&quot;&gt;&lt;font style=&quot;font-size: 14px;&quot;&gt;ds_id &lt;/font&gt;:&lt;/b&gt;&lt;font style=&quot;font-size: 14px;&quot;&gt;&amp;nbsp;&lt;font color=&quot;#ff0000&quot;&gt;0&lt;/font&gt;&lt;/font&gt;&lt;/div&gt;" style="ellipse;whiteSpace=wrap;html=1;" vertex="1" parent="K85-BwIVLnDeJNWSM9qs-431">
          <mxGeometry x="10" y="87.5" width="270" height="85" as="geometry" />
        </mxCell>
        <mxCell id="K85-BwIVLnDeJNWSM9qs-434" value="&lt;font style=&quot;font-size: 18px;&quot;&gt;&lt;b&gt;Group&lt;/b&gt;&lt;/font&gt;" style="text;html=1;align=center;verticalAlign=middle;whiteSpace=wrap;rounded=0;" vertex="1" parent="K85-BwIVLnDeJNWSM9qs-431">
          <mxGeometry x="20" y="10" width="60" height="30" as="geometry" />
        </mxCell>
        <mxCell id="K85-BwIVLnDeJNWSM9qs-435" value="" style="group" vertex="1" connectable="0" parent="K85-BwIVLnDeJNWSM9qs-431">
          <mxGeometry x="280" y="20" width="295" height="90" as="geometry" />
        </mxCell>
        <mxCell id="K85-BwIVLnDeJNWSM9qs-436" value="" style="rounded=1;whiteSpace=wrap;html=1;" vertex="1" parent="K85-BwIVLnDeJNWSM9qs-435">
          <mxGeometry width="290" height="90" as="geometry" />
        </mxCell>
        <mxCell id="K85-BwIVLnDeJNWSM9qs-437" value="&lt;font color=&quot;#ff0000&quot;&gt;UNBIND&lt;/font&gt;" style="rounded=1;whiteSpace=wrap;html=1;fillColor=#ffe6cc;strokeColor=#d79b00;" vertex="1" parent="K85-BwIVLnDeJNWSM9qs-435">
          <mxGeometry x="15" y="50" width="80" height="40" as="geometry" />
        </mxCell>
        <mxCell id="K85-BwIVLnDeJNWSM9qs-438" value="&lt;b&gt;&lt;font style=&quot;font-size: 14px;&quot;&gt;group_id:&lt;/font&gt;&lt;/b&gt;{vol_id:999, range_idx: 0,&amp;nbsp;&lt;b&gt;&lt;font color=&quot;#ff00ff&quot;&gt;group_idx: 0&lt;/font&gt;&lt;font color=&quot;#9ac7bf&quot;&gt;&amp;nbsp;&lt;/font&gt;&lt;/b&gt;}&lt;div&gt;&lt;b&gt;&lt;font style=&quot;font-size: 18px;&quot;&gt;id : 3&lt;/font&gt;&lt;/b&gt;&lt;/div&gt;" style="text;html=1;align=center;verticalAlign=middle;whiteSpace=wrap;rounded=0;" vertex="1" parent="K85-BwIVLnDeJNWSM9qs-435">
          <mxGeometry width="295" height="40" as="geometry" />
        </mxCell>
        <mxCell id="K85-BwIVLnDeJNWSM9qs-439" value="&lt;font color=&quot;#ff0000&quot;&gt;DOWN&lt;/font&gt;" style="rounded=1;whiteSpace=wrap;html=1;fillColor=#ffe6cc;strokeColor=#d79b00;" vertex="1" parent="K85-BwIVLnDeJNWSM9qs-435">
          <mxGeometry x="195" y="50" width="80" height="40" as="geometry" />
        </mxCell>
        <mxCell id="K85-BwIVLnDeJNWSM9qs-440" value="" style="group" vertex="1" connectable="0" parent="K85-BwIVLnDeJNWSM9qs-431">
          <mxGeometry x="272.71456790123466" y="150.0018518518517" width="320" height="93.33333333333331" as="geometry" />
        </mxCell>
        <mxCell id="K85-BwIVLnDeJNWSM9qs-441" value="" style="rounded=1;whiteSpace=wrap;html=1;" vertex="1" parent="K85-BwIVLnDeJNWSM9qs-440">
          <mxGeometry width="304.320987654321" height="93.33333333333331" as="geometry" />
        </mxCell>
        <mxCell id="K85-BwIVLnDeJNWSM9qs-442" value="&lt;font color=&quot;#ff0000&quot;&gt;MASTER&lt;/font&gt;" style="rounded=1;whiteSpace=wrap;html=1;fillColor=#ffe6cc;strokeColor=#d79b00;" vertex="1" parent="K85-BwIVLnDeJNWSM9qs-440">
          <mxGeometry x="15.740740740740742" y="51.85185185185185" width="83.95061728395062" height="41.48148148148148" as="geometry" />
        </mxCell>
        <mxCell id="K85-BwIVLnDeJNWSM9qs-443" value="&lt;b&gt;&lt;font style=&quot;font-size: 14px;&quot;&gt;group_id:&lt;/font&gt;&lt;/b&gt;{vol_id:999, range_idx: 0,&amp;nbsp;&lt;b&gt;&lt;font color=&quot;#ff00ff&quot;&gt;group_idx: 0&lt;/font&gt;&lt;font color=&quot;#9ac7bf&quot;&gt;&amp;nbsp;&lt;/font&gt;&lt;/b&gt;}&lt;div&gt;&lt;font style=&quot;font-size: 18px;&quot;&gt;&lt;b style=&quot;&quot;&gt;id : 0&lt;/b&gt;&lt;/font&gt;&lt;/div&gt;" style="text;html=1;align=center;verticalAlign=middle;whiteSpace=wrap;rounded=0;" vertex="1" parent="K85-BwIVLnDeJNWSM9qs-440">
          <mxGeometry width="309.56790123456796" height="41.48148148148148" as="geometry" />
        </mxCell>
        <mxCell id="K85-BwIVLnDeJNWSM9qs-444" value="RUNNING_BACKUP" style="rounded=1;whiteSpace=wrap;html=1;fillColor=#ffe6cc;strokeColor=#d79b00;" vertex="1" parent="K85-BwIVLnDeJNWSM9qs-440">
          <mxGeometry x="177.29" y="51.85" width="115.37" height="41.48" as="geometry" />
        </mxCell>
        <mxCell id="K85-BwIVLnDeJNWSM9qs-445" value="&lt;font style=&quot;font-size: 18px;&quot;&gt;&lt;b&gt;DoMigrateGroupTask&lt;/b&gt;&lt;/font&gt;" style="ellipse;whiteSpace=wrap;html=1;" vertex="1" parent="1">
          <mxGeometry x="7570" y="-160" width="200" height="70" as="geometry" />
        </mxCell>
        <mxCell id="K85-BwIVLnDeJNWSM9qs-446" value="" style="edgeStyle=orthogonalEdgeStyle;rounded=0;orthogonalLoop=1;jettySize=auto;html=1;entryX=0.5;entryY=0;entryDx=0;entryDy=0;" edge="1" parent="1" source="K85-BwIVLnDeJNWSM9qs-447" target="K85-BwIVLnDeJNWSM9qs-432">
          <mxGeometry relative="1" as="geometry">
            <mxPoint x="7670" y="170" as="targetPoint" />
          </mxGeometry>
        </mxCell>
        <mxCell id="K85-BwIVLnDeJNWSM9qs-447" value="" style="rounded=1;whiteSpace=wrap;html=1;" vertex="1" parent="1">
          <mxGeometry x="7565" y="10" width="210" height="60" as="geometry" />
        </mxCell>
        <mxCell id="K85-BwIVLnDeJNWSM9qs-448" value="" style="edgeStyle=orthogonalEdgeStyle;rounded=0;orthogonalLoop=1;jettySize=auto;html=1;exitX=0.5;exitY=1;exitDx=0;exitDy=0;" edge="1" parent="1" source="K85-BwIVLnDeJNWSM9qs-445">
          <mxGeometry relative="1" as="geometry">
            <mxPoint x="7669.73" y="-90" as="sourcePoint" />
            <mxPoint x="7669.73" y="10" as="targetPoint" />
            <Array as="points" />
          </mxGeometry>
        </mxCell>
        <mxCell id="K85-BwIVLnDeJNWSM9qs-449" value="" style="shape=flexArrow;endArrow=classic;html=1;rounded=0;" edge="1" parent="1">
          <mxGeometry width="50" height="50" relative="1" as="geometry">
            <mxPoint x="7970" y="319.5" as="sourcePoint" />
            <mxPoint x="8130" y="320" as="targetPoint" />
          </mxGeometry>
        </mxCell>
        <mxCell id="K85-BwIVLnDeJNWSM9qs-450" value="" style="group" vertex="1" connectable="0" parent="1">
          <mxGeometry x="8130" y="190" width="600" height="260" as="geometry" />
        </mxCell>
        <mxCell id="K85-BwIVLnDeJNWSM9qs-451" value="" style="rounded=1;whiteSpace=wrap;html=1;fillColor=#dae8fc;strokeColor=#6c8ebf;" vertex="1" parent="K85-BwIVLnDeJNWSM9qs-450">
          <mxGeometry width="600" height="260" as="geometry" />
        </mxCell>
        <mxCell id="K85-BwIVLnDeJNWSM9qs-452" value="&lt;b&gt;&lt;font style=&quot;font-size: 14px;&quot;&gt;id:&lt;/font&gt;&lt;/b&gt;{vol_id:999, range_idx: 0, &lt;b&gt;&lt;font color=&quot;#ff00ff&quot;&gt;group_idx: 0&lt;/font&gt;&lt;font color=&quot;#9ac7bf&quot;&gt; &lt;/font&gt;&lt;/b&gt;}&lt;div&gt;&lt;b style=&quot;font-size: 14px;&quot;&gt;&lt;font style=&quot;font-size: 14px;&quot;&gt;ds_id &lt;/font&gt;:&lt;/b&gt;&lt;font style=&quot;font-size: 14px;&quot;&gt;&amp;nbsp;&lt;font color=&quot;#ff0000&quot;&gt;0&lt;/font&gt;&lt;/font&gt;&lt;/div&gt;" style="ellipse;whiteSpace=wrap;html=1;" vertex="1" parent="K85-BwIVLnDeJNWSM9qs-450">
          <mxGeometry x="10" y="87.5" width="270" height="85" as="geometry" />
        </mxCell>
        <mxCell id="K85-BwIVLnDeJNWSM9qs-453" value="&lt;font style=&quot;font-size: 18px;&quot;&gt;&lt;b&gt;Group&lt;/b&gt;&lt;/font&gt;" style="text;html=1;align=center;verticalAlign=middle;whiteSpace=wrap;rounded=0;" vertex="1" parent="K85-BwIVLnDeJNWSM9qs-450">
          <mxGeometry x="20" y="10" width="60" height="30" as="geometry" />
        </mxCell>
        <mxCell id="K85-BwIVLnDeJNWSM9qs-454" value="" style="group" vertex="1" connectable="0" parent="K85-BwIVLnDeJNWSM9qs-450">
          <mxGeometry x="280" y="20" width="295" height="90" as="geometry" />
        </mxCell>
        <mxCell id="K85-BwIVLnDeJNWSM9qs-455" value="" style="rounded=1;whiteSpace=wrap;html=1;" vertex="1" parent="K85-BwIVLnDeJNWSM9qs-454">
          <mxGeometry width="290" height="90" as="geometry" />
        </mxCell>
        <mxCell id="K85-BwIVLnDeJNWSM9qs-456" value="UNBIND" style="rounded=1;whiteSpace=wrap;html=1;fillColor=#ffe6cc;strokeColor=#d79b00;" vertex="1" parent="K85-BwIVLnDeJNWSM9qs-454">
          <mxGeometry x="15" y="50" width="80" height="40" as="geometry" />
        </mxCell>
        <mxCell id="K85-BwIVLnDeJNWSM9qs-457" value="&lt;b&gt;&lt;font style=&quot;font-size: 14px;&quot;&gt;group_id:&lt;/font&gt;&lt;/b&gt;{vol_id:999, range_idx: 0,&amp;nbsp;&lt;b&gt;&lt;font color=&quot;#ff00ff&quot;&gt;group_idx: 0&lt;/font&gt;&lt;font color=&quot;#9ac7bf&quot;&gt;&amp;nbsp;&lt;/font&gt;&lt;/b&gt;}&lt;div&gt;&lt;b&gt;&lt;font style=&quot;font-size: 18px;&quot;&gt;id : 3&lt;/font&gt;&lt;/b&gt;&lt;/div&gt;" style="text;html=1;align=center;verticalAlign=middle;whiteSpace=wrap;rounded=0;" vertex="1" parent="K85-BwIVLnDeJNWSM9qs-454">
          <mxGeometry width="295" height="40" as="geometry" />
        </mxCell>
        <mxCell id="K85-BwIVLnDeJNWSM9qs-458" value="DOWN" style="rounded=1;whiteSpace=wrap;html=1;fillColor=#ffe6cc;strokeColor=#d79b00;" vertex="1" parent="K85-BwIVLnDeJNWSM9qs-454">
          <mxGeometry x="195" y="50" width="80" height="40" as="geometry" />
        </mxCell>
        <mxCell id="K85-BwIVLnDeJNWSM9qs-459" value="" style="group" vertex="1" connectable="0" parent="K85-BwIVLnDeJNWSM9qs-450">
          <mxGeometry x="272.71456790123466" y="150.0018518518517" width="320" height="93.33333333333331" as="geometry" />
        </mxCell>
        <mxCell id="K85-BwIVLnDeJNWSM9qs-460" value="" style="rounded=1;whiteSpace=wrap;html=1;" vertex="1" parent="K85-BwIVLnDeJNWSM9qs-459">
          <mxGeometry width="304.320987654321" height="93.33333333333331" as="geometry" />
        </mxCell>
        <mxCell id="K85-BwIVLnDeJNWSM9qs-461" value="MASTER" style="rounded=1;whiteSpace=wrap;html=1;fillColor=#ffe6cc;strokeColor=#d79b00;" vertex="1" parent="K85-BwIVLnDeJNWSM9qs-459">
          <mxGeometry x="15.740740740740742" y="51.85185185185185" width="83.95061728395062" height="41.48148148148148" as="geometry" />
        </mxCell>
        <mxCell id="K85-BwIVLnDeJNWSM9qs-462" value="&lt;b&gt;&lt;font style=&quot;font-size: 14px;&quot;&gt;group_id:&lt;/font&gt;&lt;/b&gt;{vol_id:999, range_idx: 0,&amp;nbsp;&lt;b&gt;&lt;font color=&quot;#ff00ff&quot;&gt;group_idx: 0&lt;/font&gt;&lt;font color=&quot;#9ac7bf&quot;&gt;&amp;nbsp;&lt;/font&gt;&lt;/b&gt;}&lt;div&gt;&lt;font style=&quot;font-size: 18px;&quot;&gt;&lt;b style=&quot;&quot;&gt;id : 0&lt;/b&gt;&lt;/font&gt;&lt;/div&gt;" style="text;html=1;align=center;verticalAlign=middle;whiteSpace=wrap;rounded=0;" vertex="1" parent="K85-BwIVLnDeJNWSM9qs-459">
          <mxGeometry width="309.56790123456796" height="41.48148148148148" as="geometry" />
        </mxCell>
        <mxCell id="K85-BwIVLnDeJNWSM9qs-463" value="&lt;font color=&quot;#ff0000&quot;&gt;BINDING&lt;/font&gt;" style="rounded=1;whiteSpace=wrap;html=1;fillColor=#ffe6cc;strokeColor=#d79b00;" vertex="1" parent="K85-BwIVLnDeJNWSM9qs-459">
          <mxGeometry x="177.29" y="51.85" width="115.37" height="41.48" as="geometry" />
        </mxCell>
        <mxCell id="K85-BwIVLnDeJNWSM9qs-464" value="" style="curved=1;endArrow=classic;html=1;rounded=0;dashed=1;" edge="1" parent="1" source="K85-BwIVLnDeJNWSM9qs-428" target="K85-BwIVLnDeJNWSM9qs-433">
          <mxGeometry width="50" height="50" relative="1" as="geometry">
            <mxPoint x="6960" y="500" as="sourcePoint" />
            <mxPoint x="7010" y="450" as="targetPoint" />
            <Array as="points">
              <mxPoint x="6950" y="430" />
              <mxPoint x="7150" y="420" />
            </Array>
          </mxGeometry>
        </mxCell>
      </root>
    </mxGraphModel>
  </diagram>
</mxfile>
